<ttFont>
          <CharString index="0">
            162 246 rmoveto
            103 51 59 63 33 33 -11 -30 34 vhcurveto
            -229 vlineto
            -38 -33 -32 -17 -38 hhcurveto
            -71 -40 57 106 hvcurveto
            -119 -1 47 callsubr
            return
          </CharString>
          <CharString index="1">
            rmoveto
            23 80 21 69 19 74 18 73 rlinecurve
            4 hlineto
            19 -72 19 -75 21 -69 23 -80 rcurveline
            77 -268 rmoveto
            122 hlineto
            -213 654 rlineto
            -136 hlineto
            -213 -654 rlineto
            118 hlineto
            51 177 rlineto
            220 hlineto
            endchar
          </CharString>
          <CharString index="2">
            rmoveto
            17 57 15 54 14 58 15 55 rlinecurve
            4 hlineto
            16 -54 14 -59 16 -54 17 -57 rcurveline
            62 -211 rmoveto
            121 hlineto
            -178 523 rlineto
            -135 hlineto
            -89 callsubr
            endchar
          </CharString>
          <CharString index="3">
            9 -54 rlineto
            94 291 hlineto
            137 -60 75 -123 -78 -69 -30 -34 -54 vhcurveto
            42 -77 rlineto
            26 43 46 22 49 hhcurveto
            66 22 -44 -52 1 hvcurveto
            -201 -22 -88 -55 -105 vvcurveto
            return
          </CharString>
          <CharString index="4">
            rmoveto
            -44 52 75 -31 84 hhcurveto
            128 76 69 92 90 -58 32 -77 28 hvcurveto
            -60 22 rlineto
            -46 18 -29 16 32 vvcurveto
            37 29 21 48 47 44 -21 -28 36 vhcurveto
            58 74 rlineto
            34 -42 -60 32 -81 hhcurveto
            -115 -79 -62 -93 -79 63 -41 71 -26 hvcurveto
            61 -24 rlineto
            42 -17 32 -15 -40 vvcurveto
            -36 -29 -25 -54 -58 -54 24 39 -46 vhcurveto
            return
          </CharString>
          <CharString index="5">
            -8 -45 rlineto
            -4 hlineto
            39 -39 -40 18 -52 hhcurveto
            -107 -103 -97 -152 -148 79 -97 122 52 47 24 33 35 hvcurveto
            -3 -76 rlineto
            -63 -3 -35 -41 -81 hhcurveto
            -43 -50 12 29 -47 hvcurveto
            157 176 rmoveto
            -71 -42 57 95 94 52 59 63 33 34 -11 -30 33 hvcurveto
            -208 vlineto
            -39 -33 -31 -17 -38 hhcurveto
            return
          </CharString>
          <CharString index="6">
            rmoveto
            -60 -64 rlineto
            -4 hlineto
            -60 64 rlineto
            -90 hlineto
            96 -116 rlineto
            112 hlineto
            96 -54 callsubr
            endchar
          </CharString>
          <CharString index="7">
            112 9 rmoveto
            49 44 35 133 17 vhcurveto
            -110 vlineto
            -34 -36 -31 -20 -40 hhcurveto
            -41 -29 19 44 hvcurveto
            return
          </CharString>
          <CharString index="8">
            38 84 rmoveto
            -61 62 86 -35 88 hhcurveto
            147 88 88 106 95 -55 49 -77 33 hvcurveto
            -89 37 rlineto
            -54 22 -50 19 51 vvcurveto
            48 41 29 62 56 44 -21 -35 42 vhcurveto
            59 74 rlineto
            51 -51 -74 32 -76 hhcurveto
            -128 -92 -80 -104 -96 68 -51 64 -27 hvcurveto
            90 -39 rlineto
            59 -25 42 -17 -54 vvcurveto
            -51 -40 -33 -74 -60 -63 30 44 -47 vhcurveto
            return
          </CharString>
          <CharString index="9">
            24 56 rmoveto
            -39 48 71 -29 67 hhcurveto
            124 67 68 84 92 -74 32 -67 25 hvcurveto
            -53 19 -49 15 39 vvcurveto
            31 23 23 49 39 35 -17 -25 34 vhcurveto
            53 70 rlineto
            31 -40 -55 28 -68 hhcurveto
            -110 -69 -61 -86 -82 73 -37 65 -24 hvcurveto
            52 -20 53 -18 -41 vvcurveto
            -34 -25 -25 -53 -50 -42 21 34 -44 vhcurveto
            return
          </CharString>
          <CharString index="10">
            -9 -48 rlineto
            -3 hlineto
            41 -41 -40 19 -52 hhcurveto
            -108 -103 -98 -160 hvcurveto
            return
          </CharString>
          <CharString index="11">
            163 hmoveto
            116 188 hlineto
            167 335 rlineto
            -120 hlineto
            -54 -122 -16 -39 -16 -36 -16 -40 rlinecurve
            -4 hlineto
            -17 40 -16 36 -15 39 -54 122 rcurveline
            -122 hlineto
            167 -335 rlineto
            return
          </CharString>
          <CharString index="12">
            -20 callsubr
            343 hlineto
            43 callgsubr
            54 23 -30 -81 hvcurveto
            -293 115 308 vlineto
            124 -46 71 -105 -67 return
          </CharString>
          <CharString index="13">
            11 51 10 50 9 50 rrcurveto
            4 hlineto
            8 -50 10 -50 11 -51 81 -344 rcurveline
            144 hlineto
            125 654 204 callsubr
            -57 -330 -10 -69 -11 -70 -10 -70 rlinecurve
            -4 hlineto
            -15 70 -14 71 -15 68 -80 330 rcurveline
            -101 hlineto
            -80 -330 -15 -69 -14 -71 -14 -69 rlinecurve
            -4 hlineto
            -10 69 -11 70 -11 70 -57 330 rcurveline
            -119 hlineto
            return
          </CharString>
          <CharString index="14">
            rmoveto
            40 28 27 39 38 -28 27 -40 -39 -29 -32 callgsubr
            29 -27 39 hvcurveto
            endchar
          </CharString>
          <CharString index="15">
            10 41 7 41 8 39 rrcurveto
            4 hlineto
            6 -39 8 -41 9 -41 64 -249 rcurveline
            137 hlineto
            105 523 rlineto
            -106 hlineto
            -44 -250 -9 -54 -9 -56 -7 -56 rlinecurve
            -4 hlineto
            -13 56 -13 56 -12 54 -63 250 rcurveline
            -95 hlineto
            -65 -250 -11 -55 -14 -56 -11 -55 rlinecurve
            -4 hlineto
            -9 55 -8 55 -9 56 -44 250 rcurveline
            -114 hlineto
            return
          </CharString>
          <CharString index="16">
            98 -288 193 235 98 -235 167 278 98 -394 hlineto
            return
          </CharString>
          <CharString index="17">
            83 callsubr
            185 115 hintmask 10111100
            -88 callgsubr
            hintmask 01111100
            -52 callsubr
            hintmask 10111100
            -336 vlineto
            -91 callgsubr
            vlineto
            return
          </CharString>
          <CharString index="18">
            -178 -523 rlineto
            117 hlineto
            38 127 rlineto
            178 hlineto
            return
          </CharString>
          <CharString index="19">
            -7 18 -11 -23 vvcurveto
            -24 -36 -11 -50 -6 vhcurveto
            10 -35 callgsubr
            return
          </CharString>
          <CharString index="20">
            31 vhcurveto
            hintmask 11011000
            84 124 rmoveto
            -40 15 -31 16 34 vvcurveto
            26 23 19 28 29 24 -18 -30 -21 -11 -21 -22 -20 vhcurveto
            hintmask 11100100
            -66 callsubr
            hintmask 11011000
            29 18 30 -55 callgsubr
            hintmask 11100100
            -36 -21 -36 -37 -47 vvcurveto
            endchar
          </CharString>
          <CharString index="21">
            142 callgsubr
            114 -93 142 72 61 25 51 47 vhcurveto
            -63 68 rlineto
            -29 -29 -35 -19 -48 hhcurveto
            -87 -56 64 115 110 62 66 85 41 29 -15 -27 29 hvcurveto
            63 70 rlineto
            37 -37 -58 31 -68 hhcurveto
            -145 -119 232 callsubr
            return
          </CharString>
          <CharString index="22">
            83 hmoveto
            353 -90 callgsubr
            return
          </CharString>
          <CharString index="23">
            -86 60 -58 86 58 50 29 37 44 vhcurveto
            3 hlineto
            return
          </CharString>
          <CharString index="24">
            rmoveto
            83 43 42 66 87 vvcurveto
            70 -28 41 -51 -38 -27 -27 -42 -39 30 -23 35 3 3 0 1 3 vhcurveto
            -59 -28 -35 -55 -32 vhcurveto
            return
          </CharString>
          <CharString index="25">
            190 653 -72 callsubr
            -37 -24 -17 -46 -9 vhcurveto
            20 -39 -46 11 -50 hhcurveto
            -171 32 callgsubr
            171 hvcurveto
            return
          </CharString>
          <CharString index="26">
            160 102 76 97 85 -62 36 -118 hvcurveto
            -87 hlineto
            -60 -20 17 28 22 9 12 15 13 hvcurveto
            -9 22 24 -4 21 hhcurveto
            return
          </CharString>
          <CharString index="27">
            144 507 rmoveto
            9 155 callsubr
            -25 -18 -40 -7 vhcurveto
            13 -29 -33 7 -33 hhcurveto
            -122 -111 -94 -164 -163 111 -94 122 hvcurveto
            return
          </CharString>
          <CharString index="28">
            181 517 -72 callsubr
            -35 -20 -16 -35 -9 vhcurveto
            25 -40 -47 13 -54 hhcurveto
            -150 -103 -99 -172 -172 103 -104 150 hvcurveto
            return
          </CharString>
          <CharString index="29">
            rlineto
            84 hlineto
            -94 110 rlineto
            -100 hlineto
            return
          </CharString>
          <CharString index="30">
            66 callsubr
            -36 -13 -50 -6 vhcurveto
            10 -35 callgsubr
            41 return
          </CharString>
          <CharString index="31">
            61 -9 74 -6 57 vhcurveto
            4 hlineto
            59 -118 160 -268 rlineto
            114 523 -106 -193 hlineto
            return
          </CharString>
          <CharString index="32">
            26 callsubr
            -35 -11 -50 -6 vhcurveto
            9 -35 callgsubr
            47 -30 167 callgsubr
          </CharString>
          <CharString index="33">
            rmoveto
            -126 hlineto
            -84 -116 rlineto
            return
          </CharString>
          <CharString index="34">
            rmoveto
            -40 -28 -32 callgsubr
            28 -27 40 39 29 27 39 38 -29 27 -39 hvcurveto
            -83 353 rmoveto
            23 80 21 69 19 74 18 73 rlinecurve
            4 hlineto
            19 -72 19 -75 21 -69 23 -80 rcurveline
            199 -268 rmoveto
            -213 654 rlineto
            -136 hlineto
            -213 -654 rlineto
            118 hlineto
            51 177 rlineto
            220 hlineto
            51 -177 rlineto
            endchar
          </CharString>
          <CharString index="35">
            rmoveto
            8 -12 7 -15 -17 vvcurveto
            return
          </CharString>
          <CharString index="36">
            rmoveto
            -39 -29 -32 callgsubr
            29 -27 39 40 28 27 39 38 -28 27 -40 hvcurveto
            return
          </CharString>
          <CharString index="37">
            38 20 24 29 44 vvcurveto
            67 -60 40 -70 -58 -40 -23 -43 -38 vhcurveto
            50 -44 rlineto
            25 20 25 18 27 hhcurveto
            36 23 -20 -31 -37 return
          </CharString>
          <CharString index="38">
            -51 callgsubr
            vstem
            83 hmoveto
            return
          </CharString>
          <CharString index="39">
            rmoveto
            74 hlineto
            52 69 -15 callsubr
            53 -69 rlineto
            73 hlineto
            -81 124 rlineto
            -93 hlineto
            return
          </CharString>
          <CharString index="40">
            rmoveto
            -40 -23 26 40 42 26 24 33 39 31 -30 -67 6 hvcurveto
            -25 -25 -23 -10 -24 hhcurveto
            -130 -179 rmoveto
            -18 24 31 -18 51 hhcurveto
            106 70 78 135 123 -59 78 -100 -76 -58 -58 -77 -75 46 -49 76 34 32 13 24 25 hvcurveto
            -81 -7 -36 -44 -57 hhcurveto
            -28 -20 11 14 -19 hvcurveto
            endchar
          </CharString>
          <CharString index="41">
            -163 -132 rmoveto
            -60 58 -50 85 83 61 49 63 48 -30 33 -42 22 vhcurveto
            4 vlineto
            return
          </CharString>
          <CharString index="42">
            78 27 52 60 100 vvcurveto
            146 -104 48 -136 vhcurveto
            -221 -654 116 256 100 hlineto
            141 -256 rlineto
            return
          </CharString>
          <CharString index="43">
            -107 -101 -98 -160 hvcurveto
            119 1 rmoveto
            103 51 59 63 33 33 -11 -30 34 vhcurveto
            -229 vlineto
            -38 -33 -32 -17 -38 hhcurveto
            -71 -40 57 106 hvcurveto
            return
          </CharString>
          <CharString index="44">
            -80 21 -43 callsubr
            return
          </CharString>
          <CharString index="45">
            -48 callgsubr
            -12 -20 return
          </CharString>
          <CharString index="46">
            hstem
            83 116 109 callsubr
            return
          </CharString>
          <CharString index="47">
            -41 callsubr
            -39 -13 -47 -3 vhcurveto
            return
          </CharString>
          <CharString index="48">
            rmoveto
            -83 -51 69 111 110 51 65 83 81 52 -65 -110 -111 -52 -69 -81 hvcurveto
            return
          </CharString>
          <CharString index="49">
            -11 -12 99 -66 64 callgsubr
            return
          </CharString>
          <CharString index="50">
            7 -20 -25 5 -27 hhcurveto
            -103 -91 -63 -113 -58 31 -47 33 -25 hvcurveto
            -4 vlineto
            return
          </CharString>
          <CharString index="51">
            -61 9 -77 5 -55 vhcurveto
            -4 hlineto
            -59 118 -157 268 rlineto
            -117 hlineto
            return
          </CharString>
          <CharString index="52">
            -35 -25 -25 -35 -34 25 -25 35 hvcurveto
            return
          </CharString>
          <CharString index="53">
            116 rlineto
            return
          </CharString>
          <CharString index="54">
            rmoveto
            -46 callgsubr
            186 2 callgsubr
            endchar
          </CharString>
          <CharString index="55">
            9 -72 rlineto
            94 -34 callsubr
            return
          </CharString>
          <CharString index="56">
            -49 callgsubr
            endchar
          </CharString>
          <CharString index="57">
            rmoveto
            356 678 rlineto
            -70 hlineto
            -357 -678 rlineto
            return
          </CharString>
          <CharString index="58">
            -32 -8 -19 -26 -46 hhcurveto
            -46 -19 26 32 -8 hvcurveto
            -56 hlineto
            -63 7 40 -50 82 hhcurveto
            return
          </CharString>
          <CharString index="59">
            -54 -12 94 204 84 187 91 hstemhm
            160 171 -5 116 -95 116 hintmask 11100100
            24 78 rmoveto
            -50 45 68 -40 103 hhcurveto
            122 101 68 116 84 -57 54 -75 20 hvcurveto
            4 vlineto
            hintmask 11101000
            69 27 42 48 71 vvcurveto
            108 -84 60 -122 -76 -61 -32 -48 -54 vhcurveto
            59 -71 rlineto
            36 39 39 24 50 hhcurveto
            58 36 -32 -53 -59 -41 -43 -125 hvcurveto
            hintmask 11110100
            -84 vlineto
            hintmask 11100100
            145 42 -42 -66 -60 -48 -36 -69 -64 -49 31 39 -38 hvcurveto
            endchar
          </CharString>
          <CharString index="60">
            -54 -88 94 212 84 194 92 hstemhm
            160 171 -5 116 -95 116 hintmask 11100100
            24 2 rmoveto
            -50 45 68 -40 103 hhcurveto
            122 101 72 116 86 -57 57 -75 19 hvcurveto
            4 vlineto
            hintmask 11101000
            69 28 42 52 71 vvcurveto
            108 -84 63 -122 -76 -61 -32 -48 -54 vhcurveto
            59 -72 rlineto
            37 39 39 23 50 hhcurveto
            58 36 -34 -53 -59 -41 -48 -125 hvcurveto
            hintmask 11110100
            -84 vlineto
            hintmask 11100100
            145 42 -46 -65 -60 -48 -41 -69 -64 -49 31 39 -38 hvcurveto
            endchar
          </CharString>
          <CharString index="61">
            31 22 22 31 31 63 callsubr
            -31 -31 23 -22 31 hvcurveto
            return
          </CharString>
          <CharString index="62">
            -80 0 -22 callgsubr
            return
          </CharString>
          <CharString index="63">
            -60 -12 89 139 73 125 89 return
          </CharString>
          <CharString index="64">
            -21 127 84 224 88 return
          </CharString>
          <CharString index="65">
            vvcurveto
            29 -12 26 180 callsubr
          </CharString>
          <CharString index="66">
            -72 callsubr
            -48 return
          </CharString>
          <CharString index="67">
            28 callgsubr
            -55 hlineto
            -40 -6 -24 -34 -48 hhcurveto
            -48 -24 34 40 -6 hvcurveto
            -55 hlineto
            return
          </CharString>
          <CharString index="68">
            6 76 29 63 vvcurveto
            return
          </CharString>
          <CharString index="69">
            -47 -217 75 128 91 -84 84 79 72 178 85 -67 79 return
          </CharString>
          <CharString index="70">
            vstem
            34 hmoveto
            384 92 -239 hlineto
            231 338 rlineto
            61 -350 -91 206 vlineto
            -232 -338 rlineto
            return
          </CharString>
          <CharString index="71">
            vstem
            40 hmoveto
            400 95 -260 hlineto
            257 360 rlineto
            68 -373 -95 233 vlineto
            -257 -360 rlineto
            return
          </CharString>
          <CharString index="72">
            -215 256 64 103 49 59 67 hstem
            33 81 112 83 vstem
            133 256 rmoveto
            39 32 19 24 26 hvcurveto
            4 hlineto
            8 -35 rlineto
            67 192 hlineto
            93 -43 49 -82 -52 -49 -20 -24 -38 vhcurveto
            30 -55 rlineto
            17 30 34 15 31 hhcurveto
            40 14 -23 -36 2 hvcurveto
            -135 -12 -58 -37 -70 vvcurveto
            -55 39 -42 61 vhcurveto
            27 64 rmoveto
            -29 -17 13 27 30 28 24 84 9 hvcurveto
            -70 vlineto
            -21 -23 -20 -12 -23 hhcurveto
            endchar
          </CharString>
          <CharString index="73">
            491 -115 hlineto
            return
          </CharString>
          <CharString index="74">
            90 -57 -21 410 93 return
          </CharString>
          <CharString index="75">
            -54 -88 94 249 83 140 98 hstem
            84.5 103 161.5 116 vstem
            24 2 rmoveto
            -48 47 67 -42 103 hhcurveto
            117 107 81 143 138 -91 64 -109 -33 -24 -7 -13 -27 hvcurveto
            13 160 rlineto
            240 98 -340 hlineto
            -19 -321 55 -35 rlineto
            24 38 23 11 41 hhcurveto
            70 47 -45 -77 -79 -52 -48 -71 -64 -47 32 36 -38 hvcurveto
            endchar
          </CharString>
          <CharString index="76">
            93 491 rmoveto
            92 callgsubr
            96 91 -96 53 vlineto
            57 22 26 40 17 19 -4 -8 18 vhcurveto
            22 86 rlineto
            48 callgsubr
            return
          </CharString>
          <CharString index="77">
            rmoveto
            74 hlineto
            52 69 -15 callsubr
            52 -69 rlineto
            74 hlineto
            -82 124 rlineto
            -92 hlineto
            return
          </CharString>
          <CharString index="78">
            69 vvcurveto
            83 -55 46 -82 -56 -49 -29 -49 -35 vhcurveto
            50 -46 rlineto
            31 22 26 21 29 hhcurveto
            41 25 -27 -44 -54 -67 -62 -111 return
          </CharString>
          <CharString index="79">
            -28 -20 -26 -33 -38 vvcurveto
            -40 19 -26 25 -16 vhcurveto
            -4 vlineto
            return
          </CharString>
          <CharString index="80">
            -50 -38 -45 -77 -8 hvcurveto
            return
          </CharString>
          <CharString index="81">
            107 133 callgsubr
            return
          </CharString>
          <CharString index="82">
            82 0 94 217 59 190 94 hstem
            107 116 258 119 vstem
            223 94 rmoveto
            217 137 59 -137 190 51 vlineto
            131 76 -70 -160 -161 -76 -75 -131 hvcurveto
            -167 560 rmoveto
            -284 vlineto
            -77 -4 rlineto
            -55 77 -311 180 vlineto
            195 118 113 217 216 -118 108 -201 hvcurveto
            endchar
          </CharString>
          <CharString index="83">
            115 hintmask 11011101
            30 callsubr
            hintmask 10111101
            16 callsubr
            hintmask 11011101
            -64 callsubr
            hintmask 11011110
            return
          </CharString>
          <CharString index="84">
            rmoveto
            -72 -43 65 98 99 43 65 72 72 44 -65 -99 -98 -44 -65 -72 hvcurveto
            return
          </CharString>
          <CharString index="85">
            326 rmoveto
            -64 -37 39 75 77 43 43 52 62 46 -48 -112 12 hvcurveto
            -53 -35 -43 -21 -36 hhcurveto
            -197 -266 rmoveto
            -40 38 56 -32 76 hhcurveto
            131 119 103 247 214 -106 96 -124 -109 -91 -81 -127 -133 76 -64 109 46 56 28 46 37 hvcurveto
            -176 -5 -65 -59 -80 hhcurveto
            -39 -39 20 28 -24 hvcurveto
            endchar
          </CharString>
          <CharString index="86">
            -1 callsubr
            39 -67 90 hhcurveto
            return
          </CharString>
          <CharString index="87">
            73 hmoveto
            115 return
          </CharString>
          <CharString index="88">
            88 rmoveto
            35 25 26 34 33 -25 26 -35 -34 callgsubr
            186 hmoveto
            34 51 callsubr
            -34 -34 callgsubr
            endchar
          </CharString>
          <CharString index="89">
            83 hmoveto
            116 156 hlineto
            73 79 140 -235 rlineto
            124 hlineto
            -197 315 170 208 rlineto
            -126 hlineto
            -181 -219 rlineto
            -3 219 -116 hlineto
            return
          </CharString>
          <CharString index="90">
            rmoveto
            56 callsubr
            -34 -25 -26 -33 -34 25 -26 34 hvcurveto
            186 hmoveto
            35 25 26 34 33 -25 189 callgsubr
          </CharString>
          <CharString index="91">
            26 20 callsubr
            hintmask 10111100
            -34 -336 hlineto
            -91 callgsubr
            -308 vlineto
            -124 46 -71 105 67 48 33 51 43 vhcurveto
            3 hlineto
            hintmask 01111100
            9 -72 rlineto
            94 453 hlineto
            hintmask 10111010
            49 15 44 33 62 -42 callsubr
          </CharString>
          <CharString index="92">
            rlineto
            4 hlineto
            return
          </CharString>
          <CharString index="93">
            rmoveto
            31 23 22 31 31 231 callgsubr
            -22 -23 -31 -31 22 -22 31 hvcurveto
            186 31 callgsubr
            return
          </CharString>
          <CharString index="94">
            28 callsubr
            185 hmoveto
            32 22 22 31 150 callgsubr
            -31 22 -22 31 hvcurveto
            return
          </CharString>
          <CharString index="95">
            91 hlineto
            7 134 20 92 92 117 rrcurveto
            47 -284 -73 187 vlineto
            -73 -105 -32 -84 -8 -128 rrcurveto
            return
          </CharString>
          <CharString index="96">
            7 -15 -16 3 -25 hhcurveto
            -52 -52 -35 -64 -35 hvcurveto
            -4 hlineto
            return
          </CharString>
          <CharString index="97">
            98 callgsubr
            214 115 return
          </CharString>
          <CharString index="98">
            109 vstem
            83 hmoveto
            107 299 hlineto
            61 -9 87 -6 60 vhcurveto
            4 hlineto
            52 -149 113 -297 rlineto
            54 hlineto
            113 297 53 149 -15 callsubr
            -6 -60 -9 -87 -61 vvcurveto
            -299 109 654 -128 vlineto
            -116 -322 -42 -124 rlineto
            -4 hlineto
            -43 124 -118 322 rlineto
            -128 hlineto
            return
          </CharString>
          <CharString index="99">
            19 59 vvcurveto
            47 -41 27 -94 3 vhcurveto
            -10 -52 rlineto
            50 -3 17 -12 -22 vvcurveto
            -19 -15 -9 -21 -6 vhcurveto
            endchar
          </CharString>
          <CharString index="100">
            rmoveto
            51 89 45 79 -15 callsubr
            -5 -113 rlineto
            -55 vlineto
            135 hmoveto
            -58 236 -104 hlineto
            -152 -251 rlineto
            -44 179 -95 77 95 58 vlineto
            endchar
          </CharString>
          <CharString index="101">
            rmoveto
            -205 151 -129 176 175 151 129 205 205 -151 125 -175 -176 -151 -125 -205 vhcurveto
            58 hmoveto
            169 119 110 150 149 119 -110 -169 -169 -119 -113 -149 -150 -119 113 169 vhcurveto
            return
          </CharString>
          <CharString index="102">
            -20 callsubr
            343 hlineto
            41 38 35 20 30 hhcurveto
            52 24 -30 -81 hvcurveto
            -293 115 343 vlineto
            41 38 34 20 31 hhcurveto
            51 24 -30 -81 hvcurveto
            -293 116 308 vlineto
            124 -48 71 -104 -62 -49 -38 -50 -47 vhcurveto
            55 -23 -41 33 -72 hhcurveto
            -61 -48 -35 -44 -41 hvcurveto
            -4 hlineto
            return
          </CharString>
          <CharString index="103">
            -85 -71 callsubr
            return
          </CharString>
          <CharString index="104">
            rmoveto
            63 -27 rlineto
            57 84 32 79 116 vvcurveto
            116 -32 79 -57 84 vhcurveto
            -63 -27 rlineto
            48 -80 21 -83 -89 vvcurveto
            -89 -21 -83 -48 -80 vhcurveto
            endchar
          </CharString>
          <CharString index="105">
            67 callsubr
            70 116 9 callsubr
            return
          </CharString>
          <CharString index="106">
            -40 callsubr
            -66 4 return
          </CharString>
          <CharString index="107">
            68 callgsubr
            102 146 hstem
            73 115 vstem
            127 callgsubr
            return
          </CharString>
          <CharString index="108">
            74 -27 rmoveto
            -57 -12 -31 -44 -15 -14 4 4 -13 vhcurveto
            -22 -86 rlineto
            -7 19 25 -6 36 hhcurveto
            116 40 77 104 hvcurveto
            516 -116 vlineto
            return
          </CharString>
          <CharString index="109">
            170 118 130 212 115 -35 90 -60 58 hvcurveto
            return
          </CharString>
          <CharString index="110">
            -198 256 67 208 67 hstem
            27 85 144 85 vstem
            184 256 rmoveto
            84 73 63 107 109 -73 63 -84 -84 -73 -63 -109 -107 73 -63 84 hvcurveto
            67 vmoveto
            -47 -25 42 61 63 25 42 47 47 25 -42 -63 -61 -25 -42 -47 hvcurveto
            endchar
          </CharString>
          <CharString index="111">
            rmoveto
            93 24 callgsubr
          </CharString>
          <CharString index="112">
            -33 23 -23 31 32 23 23 33 32 -23 24 -32 -31 -23 -24 -32 vhcurveto
            return
          </CharString>
          <CharString index="113">
            137 -116 -21 386 137 0 -20 return
          </CharString>
          <CharString index="114">
            vvcurveto
            29 -12 25 180 callsubr
          </CharString>
          <CharString index="115">
            174 54 hintmask 11110111
            328 840 rmoveto
            hintmask 11111011
            -28 -5 -14 -14 -19 11 callgsubr
            6 14 14 18 hhcurveto
            hintmask 11111011
            30 26 -42 48 hhcurveto
            hintmask 11110111
            45 34 38 66 7 hvcurveto
            return
          </CharString>
          <CharString index="116">
            -43 callgsubr
            179 callgsubr
            hlineto
            return
          </CharString>
          <CharString index="117">
            68 callgsubr
            106 131 hstemhm
            60 142 -129 115 hintmask 11110000
            131 577 29 callgsubr
            hintmask 11101000
            91 callsubr
            endchar
          </CharString>
          <CharString index="118">
            rmoveto
            96 -54 callsubr
            -90 hlineto
            -60 -64 rlineto
            -4 hlineto
            -60 64 rlineto
            -90 hlineto
            96 -116 rlineto
            return
          </CharString>
          <CharString index="119">
            hstem
            73 51 callgsubr
            return
          </CharString>
          <CharString index="120">
            173 callsubr
            -79 74 callsubr
          </CharString>
          <CharString index="121">
            182 hmoveto
            116 428 155 95 -427 -95 156 hlineto
            return
          </CharString>
          <CharString index="122">
            rmoveto
            261 76 -261 hlineto
            return
          </CharString>
          <CharString index="123">
            8 -53 rlineto
            95 204 callgsubr
            -178 hlineto
            4 -79 rlineto
            33 -38 -35 21 -56 hhcurveto
            return
          </CharString>
          <CharString index="124">
            rmoveto
            -262 -76 262 hlineto
            endchar
          </CharString>
          <CharString index="125">
            25 25 34 35 -25 25 return
          </CharString>
          <CharString index="126">
            rmoveto
            67 8 59 27 -9 callgsubr
            -13 -60 rlineto
            57 -4 24 126 callsubr
            return
          </CharString>
          <CharString index="127">
            -41 callsubr
            -41 -13 -42 -3 vhcurveto
            return
          </CharString>
          <CharString index="128">
            178 rmoveto
            116 184 18 34 18 37 16 34 rlinecurve
            4 hlineto
            -2 -37 -3 -57 -37 vvcurveto
            -158 vlineto
            188 hmoveto
            -80 398 -137 hlineto
            -252 -409 rlineto
            -79 281 120 callgsubr
          </CharString>
          <CharString index="129">
            7 callgsubr
            endchar
          </CharString>
          <CharString index="130">
            136 -72 rmoveto
            23 12 22 26 20 vhcurveto
            return
          </CharString>
          <CharString index="131">
            rmoveto
            hintmask 10111000
            28 5 15 14 18 hhcurveto
            hintmask 11011000
            30 26 -42 48 hhcurveto
            hintmask 10111000
            45 34 38 66 7 hvcurveto
            -54 hlineto
            hintmask 11011000
            -28 -5 -15 -14 -18 hhcurveto
            hintmask 10111000
            -30 -26 42 -48 hhcurveto
            hintmask 11011000
            -45 -34 -38 -66 -7 hvcurveto
            endchar
          </CharString>
          <CharString index="132">
            219 callsubr
            -47 30 -106 4 vhcurveto
            -13 -61 rlineto
            56 -3 25 -13 56 callgsubr
            return
          </CharString>
          <CharString index="133">
            rmoveto
            -23 -46 rlineto
            94 callgsubr
            return
          </CharString>
          <CharString index="134">
            -84 -54 callsubr
            -126 hlineto
            return
          </CharString>
          <CharString index="135">
            rmoveto
            -46 callsubr
            return
          </CharString>
          <CharString index="136">
            229 vlineto
            37 38 34 18 36 hhcurveto
            74 32 -58 -98 -111 -50 -58 -65 return
          </CharString>
          <CharString index="137">
            43 245 47 callsubr
            return
          </CharString>
          <CharString index="138">
            4 hlineto
            60 -64 -97 callgsubr
            return
          </CharString>
          <CharString index="139">
            148 104 104 172 80 -22 64 -39 46 hvcurveto
            return
          </CharString>
          <CharString index="140">
            28 -12 96 439 -20 return
          </CharString>
          <CharString index="141">
            83 hmoveto
            116 221 210 -221 202 callsubr
            -202 -210 202 -116 hlineto
            return
          </CharString>
          <CharString index="142">
            -12 100 callgsubr
            return
          </CharString>
          <CharString index="143">
            128 callsubr
            -24 -26 -33 -34 24 -26 35 hvcurveto
            return
          </CharString>
          <CharString index="144">
            -18 69 callgsubr
            return
          </CharString>
          <CharString index="145">
            rmoveto
            278 73 -140 hlineto
            68 73 56 58 69 vvcurveto
            83 -56 46 -82 -56 -48 -29 -49 -36 vhcurveto
            50 -46 rlineto
            31 22 26 21 30 hhcurveto
            40 26 -27 -44 -54 -68 -62 -110 -95 hvcurveto
            return
          </CharString>
          <CharString index="146">
            rmoveto
            77 hlineto
            57 62 -15 callsubr
            57 -62 rlineto
            77 hlineto
            return
          </CharString>
          <CharString index="147">
            hintmask 11101010
            -32 -7 -14 -16 -19 hhcurveto
            hintmask 11011010
            -33 -33 206 callsubr
            hintmask 11100110
            60 hlineto
            hintmask 11010110
            33 7 15 16 18 hhcurveto
            hintmask 11101010
            34 32 -49 53 hhcurveto
            return
          </CharString>
          <CharString index="148">
            28 6 13 12 19 hhcurveto
            hintmask 0111101001000000
            30 20 -40 52 hhcurveto
            hintmask 0111011001000000
            45 33 36 66 6 hvcurveto
            -52 hlineto
            hintmask 0111101001000000
            -28 -6 -13 -12 -19 hhcurveto
            hintmask 0111010110000000
            -30 -20 40 -52 hhcurveto
            return
          </CharString>
          <CharString index="149">
            67 118 51 111 67 hstemhm
            228 85 -70 85 hintmask 11101000
            31 return
          </CharString>
          <CharString index="150">
            62 16 29 49 47 vvcurveto
            100 -88 30 -116 vhcurveto
            -185 hlineto
            116 -215 rmoveto
            130 67 vlineto
            67 33 -17 -44 -43 -29 -26 -72 hvcurveto
            -66 -223 rmoveto
            149 74 vlineto
            return
          </CharString>
          <CharString index="151">
            rmoveto
            34 18 callsubr
            -34 -55 callsubr
            185 hmoveto
            -20 callgsubr
            -35 -24 -25 -35 -34 24 -25 35 hvcurveto
            endchar
          </CharString>
          <CharString index="152">
            -31 -33 48 -52 hhcurveto
            -51 -34 180 callgsubr
            endchar
          </CharString>
          <CharString index="153">
            67 88 60 132 67 hstem
            37 78 135 80 vstem
            178 return
          </CharString>
          <CharString index="154">
            rmoveto
            -162 79 -95 123 -24 callgsubr
            vhcurveto
            4 hlineto
            return
          </CharString>
          <CharString index="155">
            49 callgsubr
            35 -24 hvcurveto
            return
          </CharString>
          <CharString index="156">
            -4 -12 94 125 82 151 95 return
          </CharString>
          <CharString index="157">
            -197 95 callsubr
            return
          </CharString>
          <CharString index="158">
            25 26 34 33 -25 26 return
          </CharString>
          <CharString index="159">
            21 162 callsubr
            return
          </CharString>
          <CharString index="160">
            hstem
            258 116 vstem
            24 83 rmoveto
            -62 37 55 -33 81 hhcurveto
            121 56 83 99 hvcurveto
            353 -116 -344 vlineto
            -71 -26 -23 -47 -33 -29 19 36 -21 vhcurveto
            return
          </CharString>
          <CharString index="161">
            rmoveto
            93 hlineto
            115 -54 callsubr
            return
          </CharString>
          <CharString index="162">
            hstemhm
            40 96 -80 108 -98 93 return
          </CharString>
          <CharString index="163">
            35 51 callsubr
            -35 return
          </CharString>
          <CharString index="164">
            141 191 callgsubr
            -31 -22 -24 -12 -50 -8 rrcurveto
            -54 87 vlineto
            return
          </CharString>
          <CharString index="165">
            -22 vvcurveto
            -22 -22 -9 return
          </CharString>
          <CharString index="166">
            vstem
            256 -12 rmoveto
            132 84 118 215 214 -84 113 -132 -132 -84 -112 -215 -215 84 -118 132 hvcurveto
            90 vmoveto
            return
          </CharString>
          <CharString index="167">
            rmoveto
            41 31 27 39 38 -31 27 -41 -40 -31 -32 callgsubr
            31 -27 40 hvcurveto
            endchar
          </CharString>
          <CharString index="168">
            -67 hlineto
            -36 -5 -20 -31 -41 hhcurveto
            -41 -20 31 36 -5 hvcurveto
            return
          </CharString>
          <CharString index="169">
            rmoveto
            94 hlineto
            -85 -54 callsubr
            -125 hlineto
            endchar
          </CharString>
          <CharString index="170">
            -22 146 callgsubr
            return
          </CharString>
          <CharString index="171">
            hstem
            49 119 return
          </CharString>
          <CharString index="172">
            233 0 115 380 159 0 -20 return
          </CharString>
          <CharString index="173">
            43 63 callgsubr
            return
          </CharString>
          <CharString index="174">
            -285 52 callsubr
            return
          </CharString>
          <CharString index="175">
            -285 52 callgsubr
            return
          </CharString>
          <CharString index="176">
            201 62 rmoveto
            -90 hlineto
            94 -116 rlineto
            67 hlineto
            endchar
          </CharString>
          <CharString index="177">
            152 callgsubr
            117 -116 rlineto
            return
          </CharString>
          <CharString index="178">
            31 22 24 30 30 -22 23 -31 return
          </CharString>
          <CharString index="179">
            99 34 57 76 98 vvcurveto
            74 -32 44 -54 -42 -35 -28 -43 -45 35 -26 39 vhcurveto
            3 3 0 3 hhcurveto
            -51 -37 -45 -64 -25 vhcurveto
            endchar
          </CharString>
          <CharString index="180">
            111 callsubr
            -23 -22 13 29 return
          </CharString>
          <CharString index="181">
            hlineto
            -60 -85 rlineto
            -4 hlineto
            -60 85 rlineto
            -80 hlineto
            endchar
          </CharString>
          <CharString index="182">
            181 0 95 277 119 0 -20 return
          </CharString>
          <CharString index="183">
            148 hmoveto
            141 hlineto
            79 344 rlineto
            return
          </CharString>
          <CharString index="184">
            83 hmoveto
            111 286 hlineto
            return
          </CharString>
          <CharString index="185">
            rmoveto
            hintmask 11111100
            219 callsubr
            -48 30 -106 4 vhcurveto
            -12 -61 rlineto
            56 -3 25 -13 58 callsubr
            -29 -7 vhcurveto
            return
          </CharString>
          <CharString index="186">
            83 hmoveto
            339 95 -223 428 -116 hlineto
            return
          </CharString>
          <CharString index="187">
            83 hmoveto
            388 98 -272 556 -116 hlineto
            return
          </CharString>
          <CharString index="188">
            -180 76 125 -21 return
          </CharString>
          <CharString index="189">
            -12 -23 vvcurveto
            -21 -22 -10 return
          </CharString>
          <CharString index="190">
            hstemhm
            68 115 return
          </CharString>
          <CharString index="191">
            67 8 58 28 -9 callgsubr
            -12 -61 rlineto
            56 188 callsubr
          </CharString>
          <CharString index="192">
            -73 callgsubr
            85 return
          </CharString>
          <CharString index="193">
            rmoveto
            67 8 58 28 63 vvcurveto
            52 -47 222 callgsubr
            -61 rlineto
            56 152 callsubr
            -28 -6 vhcurveto
            return
          </CharString>
          <CharString index="194">
            rlineto
            42 63 callgsubr
            -35 -13 -50 -6 vhcurveto
            9 -50 rlineto
            86 210 callgsubr
            return
          </CharString>
          <CharString index="195">
            148 callgsubr
            229 callsubr
          </CharString>
          <CharString index="196">
            14 18 hhcurveto
            hintmask 1111101010000000
            30 26 -42 48 hhcurveto
            hintmask 1111011010000000
            45 34 38 66 7 hvcurveto
            -54 hlineto
            hintmask 1111101010000000
            -28 -5 return
          </CharString>
          <CharString index="197">
            101 -74 103 181 95 -83 108 hintmask 11100100
            return
          </CharString>
          <CharString index="198">
            -58 -577 rmoveto
            172 callsubr
            return
          </CharString>
          <CharString index="199">
            83 hmoveto
            202 callsubr
            hlineto
            return
          </CharString>
          <CharString index="200">
            -72 -202 232 callgsubr
            return
          </CharString>
          <CharString index="201">
            36 115 callgsubr
            return
          </CharString>
          <CharString index="202">
            0 98 458 98 return
          </CharString>
          <CharString index="203">
            vvcurveto
            67 37 39 62 38 27 -18 -29 25 vhcurveto
            64 63 rlineto
            48 -40 -51 30 -73 hhcurveto
            -118 -82 -74 -120 return
          </CharString>
          <CharString index="204">
            rmoveto
            147 vlineto
            23 23 22 12 23 hhcurveto
            45 22 -35 -63 -73 -32 -36 -39 -20 -22 7 18 -22 hvcurveto
            endchar
          </CharString>
          <CharString index="205">
            hstemhm
            52 112 return
          </CharString>
          <CharString index="206">
            6 callsubr
            hstemhm
            83 107 return
          </CharString>
          <CharString index="207">
            hstemhm
            73 115 return
          </CharString>
          <CharString index="208">
            vstem
            182 61 rmoveto
            46 36 -115 155 115 154 -46 37 -135 -149 rlineto
            -84 vlineto
            return
          </CharString>
          <CharString index="209">
            -26 54 rlineto
            -8 -12 -12 -5 -13 hhcurveto
            -24 -21 14 28 35 22 36 46 24 hvcurveto
            491 -115 vlineto
            return
          </CharString>
          <CharString index="210">
            rmoveto
            86 -54 callsubr
            -101 hlineto
            -65 -116 rlineto
            169 hmoveto
            80 hlineto
            86 -54 callsubr
            -101 hlineto
            endchar
          </CharString>
          <CharString index="211">
            -58 43 153 callgsubr
            return
          </CharString>
          <CharString index="212">
            130 callsubr
            endchar
          </CharString>
          <CharString index="213">
            82 40 50 63 7 hvcurveto
            return
          </CharString>
          <CharString index="214">
            52 132 rmoveto
            return
          </CharString>
          <CharString index="215">
            rlineto
            94 vlineto
            -152 -7 6 167 rlineto
            -94 hlineto
            7 -167 -152 7 rlineto
            -94 vlineto
            152 return
          </CharString>
          <CharString index="216">
            vstem
            -84 callgsubr
            return
          </CharString>
          <CharString index="217">
            rmoveto
            73 143 callsubr
            90 -147 rmoveto
            72 143 callsubr
            endchar
          </CharString>
          <CharString index="218">
            14 18 22 vhcurveto
            -28 60 rlineto
            -8 -11 -13 -6 -14 hhcurveto
            return
          </CharString>
          <CharString index="219">
            147 callgsubr
            267 119 return
          </CharString>
          <CharString index="220">
            rmoveto
            265 76 -265 hlineto
            return
          </CharString>
          <CharString index="221">
            rmoveto
            28 callgsubr
            return
          </CharString>
          <CharString index="222">
            33 33 -49 53 hhcurveto
            return
          </CharString>
          <CharString index="223">
            rmoveto
            60 65 rlineto
            30 callgsubr
            return
          </CharString>
          <CharString index="224">
            527 71 hstem
            47 83 120 84 193 callsubr
            83 224 hlineto
            26 26 21 13 return
          </CharString>
          <CharString index="225">
            hvcurveto
            46 vmoveto
            -24 -20 21 30 31 20 21 24 25 20 -21 -31 -30 -20 -21 -25 hvcurveto
            endchar
          </CharString>
          <CharString index="226">
            82 rmoveto
            85 hlineto
            -89 146 rlineto
            -115 hlineto
            endchar
          </CharString>
          <CharString index="227">
            161 callsubr
            endchar
          </CharString>
          <CharString index="228">
            36 189 callsubr
            112 callsubr
            -56 91 hintmask 11111000
            return
          </CharString>
          <CharString index="229">
            32 21 215 callsubr
            50 116 -51 callgsubr
            231 114 vstem
            return
          </CharString>
          <CharString index="230">
            328 -67 callgsubr
            return
          </CharString>
          <CharString index="231">
            -45 32 -33 42 42 33 33 45 45 -33 33 -42 return
          </CharString>
          <CharString index="232">
            67 144 53 64 74 hstem
            245 85 vstem
            31 return
          </CharString>
          <CharString index="233">
            -12 56 callgsubr
            return
          </CharString>
          <CharString index="234">
            vvcurveto
            -59 47 -32 58 230 callgsubr
            return
          </CharString>
          <CharString index="235">
            56 callsubr
            -35 return
          </CharString>
          <CharString index="236">
            33 6 11 15 18 hhcurveto
            return
          </CharString>
          <CharString index="237">
            -66 4 39 -67 90 hhcurveto
            return
          </CharString>
          <CharString index="238">
            21 64 callgsubr
            return
          </CharString>
          <CharString index="239">
            vstem
            -20 callsubr
            return
          </CharString>
          <CharString index="240">
            -15 callsubr
            60 return
          </CharString>
          <CharString index="241">
            156 hstemhm
            83 149 -130.5 112.5 -103 93 hintmask 10010000
            return
          </CharString>
          <CharString index="242">
            -11 callgsubr
            -63 7 40 -52 83 hhcurveto
            return
          </CharString>
          <CharString index="243">
            -58 callsubr
            102 146 83 callsubr
            185 115 return
          </CharString>
          <CharString index="244">
            rmoveto
            2 hlineto
            509 268 rlineto
            4 vlineto
            -509 267 rlineto
            -2 hlineto
            endchar
          </CharString>
          <CharString index="245">
            -56 -38 80 -81 hhcurveto
            -46 -49 -28 -69 -43 hvcurveto
            return
          </CharString>
          <CharString index="246">
            rmoveto
            -123 hlineto
            115 -116 rlineto
            93 hlineto
            return
          </CharString>
          <CharString index="247">
            59 168 68 hstem
            217 77 vstem
            122 return
          </CharString>
          <CharString index="248">
            154 1 63 rlineto
            -77 hlineto
            return
          </CharString>
          <CharString index="249">
            vstem
            174 callsubr
            return
          </CharString>
          <CharString index="250">
            hlineto
            92 222 callsubr
            return
          </CharString>
          <CharString index="251">
            hlineto
            -95 146 rlineto
            -93 hlineto
            return
          </CharString>
          <CharString index="252">
            vvcurveto
            -19 -17 230 callsubr
            return
          </CharString>
          <CharString index="253">
            -110 -297 return
          </CharString>
          <CharString index="254">
            vmoveto
            60 43 36 57 56 -43 37 -60 -61 -42 -37 -56 -57 42 -36 61 hvcurveto
            return
          </CharString>
          <CharString index="255">
            -226 260 64 86 50 77 65 41 97 hstem
            26 79 141 71 vstem
            return
          </CharString>
          <CharString index="256">
            163.5 -20 hstem
            197.5 87.5 vstem
            return
          </CharString>
          <CharString index="257">
            -12 88 234 84 160 94 return
          </CharString>
          <CharString index="258">
            73 hstem
            124 91 vstem
            124 return
          </CharString>
          <CharString index="259">
            -3 25 82 callsubr
            return
          </CharString>
          <CharString index="260">
            96 hstem
            168 87 vstem
            168 return
          </CharString>
          <CharString index="261">
            -35 -23 -57 hvcurveto
            -51 vlineto
            return
          </CharString>
          <CharString index="262">
            -12 7 -15 -17 vvcurveto
            -37 return
          </CharString>
          <CharString index="263">
            rmoveto
            56 7 48 21 55 vvcurveto
            46 -40 28 -94 3 vhcurveto
            -11 -51 rlineto
            50 return
          </CharString>
          <CharString index="264">
            -18 -73 callgsubr
            73 78 callgsubr
            return
          </CharString>
          <CharString index="265">
            99 -66 64 callgsubr
            83 callsubr
            return
          </CharString>
          <CharString index="266">
            -20 12 callsubr
            return
          </CharString>
          <CharString index="267">
            -20 -33 callgsubr
            return
          </CharString>
          <CharString index="268">
            -116 rlineto
            94 hlineto
            return
          </CharString>
          <CharString index="269">
            -21 654 -20 return
          </CharString>
          <CharString index="270">
            hstemhm
            80 116 return
          </CharString>
          <CharString index="271">
            158 -158 217 100 callsubr
            48 74.5 return
          </CharString>
          <CharString index="272">
            201 callgsubr
            endchar
          </CharString>
          <CharString index="273">
            34 32 -49 54 hhcurveto
            endchar
          </CharString>
          <CharString index="274">
            -21 523 -20 return
          </CharString>
          <CharString index="275">
            24 -79 9 vhcurveto
            return
          </CharString>
          <CharString index="276">
            8 -25 -46 hvcurveto
            -192 84 203 vlineto
            78 -28 53 -75 -44 return
          </CharString>
          <CharString index="277">
            -27 callgsubr
            70 return
          </CharString>
          <CharString index="278">
            rmoveto
            90 40 67 66 3 hvcurveto
            -67 hlineto
            return
          </CharString>
          <CharString index="279">
            115 -34 callsubr
            return
          </CharString>
          <CharString index="280">
            rmoveto
            93 hlineto
            95 146 rlineto
            return
          </CharString>
          <CharString index="281">
            -25 callgsubr
            -163 return
          </CharString>
          <CharString index="282">
            116 64 callsubr
            return
          </CharString>
          <CharString index="283">
            -66 52 callsubr
            return
          </CharString>
          <CharString index="284">
            -22 -23 -30 -30 22 -24 return
          </CharString>
          <CharString index="285">
            32 33 -48 51 hhcurveto
            return
          </CharString>
          <CharString index="286">
            49 259 rmoveto
            return
          </CharString>
          <CharString index="287">
            -14 18 vhcurveto
            endchar
          </CharString>
          <CharString index="288">
            -48 -24 34 40 -6 hvcurveto
            -55 hlineto
            201 callgsubr
            return
          </CharString>
          <CharString index="289">
            523 -116 return
          </CharString>
          <CharString index="290">
            74 -25 73 hstemhm
            return
          </CharString>
          <CharString index="291">
            rmoveto
            -93 hlineto
            hintmask 11110100
            -70 -116 rlineto
            68 hlineto
            -172 return
          </CharString>
          <CharString index="292">
            rmoveto
            98 hlineto
            88 107 rlineto
            -81 hlineto
            -54 -61 rlineto
            -4 hlineto
            return
          </CharString>
          <CharString index="293">
            vstem
            80 callsubr
            return
          </CharString>
          <CharString index="294">
            -30 -34 48 -52 hhcurveto
            -51 -33 180 callgsubr
            endchar
          </CharString>
          <CharString index="295">
            209 callsubr
            endchar
          </CharString>
          <CharString index="296">
            115 callgsubr
            56 116 return
          </CharString>
          <CharString index="297">
            156 hstem
            63 149 vstem
            63 return
          </CharString>
          <CharString index="298">
            119 -25 116 -25 120 return
          </CharString>
          <CharString index="299">
            hstem
            -2 562 vstem
            return
          </CharString>
          <CharString index="300">
            vstem
            47 264 rmoveto
            return
          </CharString>
          <CharString index="301">
            704 116 hstem
            return
          </CharString>
          <CharString index="302">
            -20 100 callsubr
            return
          </CharString>
          <CharString index="303">
            hstemhm
            41 111 return
          </CharString>
          <CharString index="304">
            -45 callsubr
            68 110 return
          </CharString>
          <CharString index="305">
            -46 -32 -36 -66 -7 hvcurveto
            endchar
          </CharString>
          <CharString index="306">
            94 -54 callsubr
            -90 hlineto
            endchar
          </CharString>
          <CharString index="307">
            104 hstem
            102 59 vstem
            51 return
          </CharString>
          <CharString index="308">
            445 84 -445 hlineto
            return
          </CharString>
          <CharString index="309">
            116 182 callsubr
            return
          </CharString>
          <CharString index="310">
            118 231 return
          </CharString>
          <CharString index="311">
            rlineto
            -111 hlineto
            return
          </CharString>
          <CharString index="312">
            rlineto
            -119 hlineto
            return
          </CharString>
          <CharString index="313">
            48 -53 hhcurveto
            hintmask 11101010
            -27 callsubr
            return
          </CharString>
          <CharString index="314">
            hstem
            162 115 vstem
            162 hmoveto
            115 return
          </CharString>
          <CharString index="315">
            0 98 459 91 hstem
            326 111 vstem
            return
          </CharString>
          <CharString index="316">
            152 callsubr
            -29 -6 vhcurveto
            return
          </CharString>
          <CharString index="317">
            vlineto
            155 82 rlineto
            67 vlineto
            -155 -82 rlineto
            return
          </CharString>
          <CharString index="318">
            -194 21 -21 401 102 -12 -20 22 -20 return
          </CharString>
          <CharString index="319">
            224 callgsubr
            203 195 callsubr
            return
          </CharString>
          <CharString index="320">
            558 hstem
            106 83 vstem
            37 return
          </CharString>
          <CharString index="321">
            -113 0 95 428 -20 return
          </CharString>
          <CharString index="322">
            -21 256 92 213 93 return
          </CharString>
          <CharString index="323">
            hlineto
            -31 -42 -4 -3 -33 hvcurveto
            return
          </CharString>
          <CharString index="324">
            -126 52 callgsubr
            return
          </CharString>
          <CharString index="325">
            hstem
            30 85 135 83 vstem
            return
          </CharString>
          <CharString index="326">
            155 callgsubr
            53 return
          </CharString>
          <CharString index="327">
            -5 -15 hhcurveto
            -22 -22 13 29 return
          </CharString>
          <CharString index="328">
            vhcurveto
            -4 vlineto
            hintmask 11100100
            return
          </CharString>
          <CharString index="329">
            147 rlineto
            -95 hlineto
            return
          </CharString>
          <CharString index="330">
            hstem
            90 87 vstem
            90 return
          </CharString>
          <CharString index="331">
            67 132 67 return
          </CharString>
          <CharString index="332">
            -29 -6 -19 -25 return
          </CharString>
          <CharString index="333">
            hhcurveto
            73 66 64 113 99 -48 66 -82 return
          </CharString>
          <CharString index="334">
            573 124 -54 116 hstemhm
            -128 return
          </CharString>
          <CharString index="335">
            vmoveto
            38 28 27 44 44 -28 27 -38 -38 return
          </CharString>
          <CharString index="336">
            -67 hlineto
            105 callsubr
          </CharString>
          <CharString index="337">
            -8 -22 -5 vhcurveto
            return
          </CharString>
          <CharString index="338">
            -33 -6 -11 -15 return
          </CharString>
          <CharString index="339">
            -102 -174 hvcurveto
            return
          </CharString>
        <CharString name=".notdef">
          105 0 75 509 76 hstem
          84 82 339 83 vstem
          84 hmoveto
          504 660 -504 hlineto
          82 -527 rmoveto
          416 vlineto
          111 -209 rlineto
          118 hmoveto
          110 209 rlineto
          -416 vlineto
          -275 -58 rmoveto
          57 104 47 100 -15 callsubr
          46 -100 56 -104 rlineto
          -106 326 rmoveto
          -46 94 -49 89 rlineto
          193 hlineto
          -48 -89 -46 -94 rlineto
          endchar
        </CharString>
        <CharString name="A">
          -62 callgsubr
          192 callsubr
          194 268 -106 callsubr
        </CharString>
        <CharString name="A.sc">
          -63 callsubr
          192 callgsubr
          178 211 -105 callsubr
        </CharString>
        <CharString name="A.sups">
          -192 378 64 190 64 hstem
          -3 382 vstem
          133 442 rmoveto
          14 50 13 45 14 48 11 47 rlinecurve
          2 hlineto
          13 -46 14 -49 12 -45 14 -50 rcurveline
          50 -178 rmoveto
          89 hlineto
          -141 432 rlineto
          -99 hlineto
          -142 -432 rlineto
          85 hlineto
          33 114 rlineto
          143 hlineto
          endchar
        </CharString>
        <CharString name="AE">
          267 0 98 72 91 30 98 167 98 hstemhm
          394 116 vstemhm
          246 261 rmoveto
          51 105 31 64 30 68 32 67 rlinecurve
          4 -304 hlineto
          116 -163 rmoveto
          hintmask 10111000
          193 221 98 -221 167 263 98 -449 vlineto
          -327 -654 rlineto
          122 hlineto
          hintmask 11111000
          83 170 rlineto
          192 -170 389 98 hlineto
          endchar
        </CharString>
        <CharString name="AE.sc">
          159 0 90 34 84 19 136 callgsubr
          hstemhm
          336 116 vstemhm
          221 208 rmoveto
          39 78 24 47 24 53 25 52 rlinecurve
          3 -230 hlineto
          116 -118 rmoveto
          hintmask 10111000
          137 180 85 -180 121 214 90 -399 vlineto
          -270 -523 rlineto
          119 hlineto
          hintmask 11111000
          62 124 rlineto
          158 -124 340 90 hlineto
          endchar
        </CharString>
        <CharString name="Aacute">
          -62 callgsubr
          50 116 192 callsubr
          424 197 callgsubr
          -113 -436 -106 callsubr
        </CharString>
        <CharString name="Aacute.sc">
          -63 callsubr
          68 116 192 callgsubr
          388 707 -74 callsubr
          94 hlineto
          -94 -380 -105 callsubr
        </CharString>
        <CharString name="Abreve">
          -62 callgsubr
          51 61 192 callsubr
          341 820 rmoveto
          57 callgsubr
          83 40 51 64 7 hvcurveto
          -213 -552 -106 callsubr
        </CharString>
        <CharString name="Abreve.sc">
          -63 callsubr
          69 61 hstem
          -2 491 72 callgsubr
          -193 -496 -105 callsubr
        </CharString>
        <CharString name="Acircumflex">
          -62 callgsubr
          50 116 192 callsubr
          275 768 rmoveto
          31 callsubr
          90 hlineto
          -21 -436 -106 callsubr
        </CharString>
        <CharString name="Acircumflex.sc">
          -63 callsubr
          68 116 192 callgsubr
          239 656 rmoveto
          30 callgsubr
          90 hlineto
          -1 -380 -105 callsubr
        </CharString>
        <CharString name="Adieresis">
          -62 callgsubr
          54 119 hstem
          124 120 66 119 vstem
          370 708 rmoveto
          34 18 callsubr
          -34 -55 callsubr
          -186 2 callgsubr
          10 -440 -106 callsubr
        </CharString>
        <CharString name="Adieresis.sc">
          -63 callsubr
          72 119 hstem
          89 119 66 120 vstem
          334 595 rmoveto
          -20 callgsubr
          -55 callsubr
          -186 hmoveto
          -46 callgsubr
          30 -384 -105 callsubr
        </CharString>
        <CharString name="Agrave">
          -62 callgsubr
          50 116 192 callsubr
          340 704 152 callgsubr
          116 -116 rlineto
          -52 -436 -106 callsubr
        </CharString>
        <CharString name="Agrave.sc">
          -63 callsubr
          68 116 192 callgsubr
          304 591 70 callsubr
          -33 -380 -105 callsubr
        </CharString>
        <CharString name="Amacron">
          -62 callgsubr
          70 76 hstem
          144 266 vstem
          410 800 174 callgsubr
          -216 -456 -106 callsubr
        </CharString>
        <CharString name="Amacron.sc">
          -63 callsubr
          88 76 hstem
          108 266 vstem
          374 687 174 callgsubr
          -196 -400 -105 callsubr
        </CharString>
        <CharString name="Aogonek">
          -9 -218 78 161 -42 callgsubr
          hstem
          389 86 vstem
          194 268 rmoveto
          23 80 21 69 19 74 18 73 rlinecurve
          4 hlineto
          19 -72 19 -75 21 -69 23 -80 rcurveline
          197 -394 rmoveto
          -9 -11 -13 -5 -16 hhcurveto
          -23 -20 14 28 40 35 46 50 12 hvcurveto
          -213 654 rlineto
          -136 hlineto
          -213 -654 rlineto
          118 hlineto
          51 177 rlineto
          220 hlineto
          51 -177 rlineto
          29 hlineto
          -33 -21 -45 -48 -58 91 callgsubr
          endchar
        </CharString>
        <CharString name="Aogonek.sc">
          -80 -218 78 161 -43 callsubr
          hstem
          318 86 vstem
          178 211 rmoveto
          17 57 15 54 14 58 15 55 rlinecurve
          4 hlineto
          16 -54 14 -59 16 -54 17 -57 rcurveline
          181 -337 rmoveto
          -9 -11 -13 -5 -17 hhcurveto
          -22 -20 14 28 40 34 46 51 12 hvcurveto
          -178 523 rlineto
          -135 hlineto
          -89 callsubr
          37 -127 rlineto
          28 hlineto
          -34 -21 -44 -48 -58 vvcurveto
          -59 46 -32 59 230 callgsubr
          22 vhcurveto
          endchar
        </CharString>
        <CharString name="Aring">
          -62 callgsubr
          44 46 94 46 hstem
          174 58 88 60 vstem
          277 838 rmoveto
          24 19 -18 -29 -30 -19 -17 -24 -25 -20 17 30 29 20 18 25 hvcurveto
          -140 147 callsubr
          -83 -430 -106 callsubr
        </CharString>
        <CharString name="Aring.sc">
          -63 callsubr
          62 46 94 46 hstem
          138 59 88 59 vstem
          241 725 rmoveto
          24 20 -18 -29 -30 -20 -17 -24 -24 -20 17 30 29 20 18 24 hvcurveto
          -140 vmoveto
          60 43 37 56 56 -43 37 -60 -61 -42 -37 -56 -56 42 -37 61 hvcurveto
          -63 -374 -105 callsubr
        </CharString>
        <CharString name="Atilde">
          -62 callgsubr
          53 183 callsubr
          119 61 194 60 hintmask 11101010
          374 829 rmoveto
          hintmask 11110010
          -33 -6 -15 -15 -19 hhcurveto
          hintmask 11101100
          -33 -33 48 -53 hhcurveto
          hintmask 11110100
          -27 callsubr
          61 hlineto
          hintmask 11101100
          130 callgsubr
          hintmask 11110010
          34 32 -49 53 hhcurveto
          hintmask 11101010
          -26 callgsubr
          -240 -561 -106 callsubr
        </CharString>
        <CharString name="Atilde.sc">
          -63 callsubr
          71 183 callsubr
          84 60 194 61 hintmask 11101010
          338 716 rmoveto
          hintmask 11110010
          177 callgsubr
          hintmask 11101100
          161 callgsubr
          hintmask 11110100
          10 callgsubr
          hintmask 11101100
          176 callgsubr
          hintmask 11110010
          115 callsubr
          hintmask 11101010
          -26 callgsubr
          -221 -505 -105 callsubr
        </CharString>
        <CharString name="B">
          30 0 90 210 83 181 90 -33 callgsubr
          213 114 -79 113 hintmask 11110100
          137 callgsubr
          hintmask 11111000
          42 callgsubr
          hintmask 11110100
          98 52 -32 -68 -74 -54 -36 -96 hvcurveto
          endchar
        </CharString>
        <CharString name="B.sc">
          -31 0 85 149 74 130 85 -33 callgsubr
          167 106 -84 112 hintmask 11110100
          83 hmoveto
          200 hlineto
          140 callgsubr
          4 vlineto
          hintmask 11111000
          43 callsubr
          hintmask 11110100
          76 39 -24 -48 -53 -42 -24 -73 hvcurveto
          endchar
        </CharString>
        <CharString name="B.sups">
          -168 264 64 132 59 113 64 hstemhm
          53 84 136 81 -59 82 hintmask 11110100
          53 264 rmoveto
          156 hlineto
          95 73 41 87 57 -34 34 -63 11 hvcurveto
          2 vlineto
          hintmask 11111000
          51 15 23 39 40 vvcurveto
          80 -67 26 -90 vhcurveto
          -144 hlineto
          84 -177 rmoveto
          113 55 vlineto
          54 27 -16 -37 -38 -25 -22 -58 hvcurveto
          -53 -191 rmoveto
          132 vlineto
          hintmask 11110100
          63 hlineto
          63 32 -20 -43 -47 -33 -22 -62 hvcurveto
          endchar
        </CharString>
        <CharString name="C">
          9 133 callgsubr
          64 callsubr
          -87 callgsubr
          endchar
        </CharString>
        <CharString name="C.sc">
          -55 115 callgsubr
          hstem
          49 118 -86 callsubr
          endchar
        </CharString>
        <CharString name="C.sups">
          -182 256 72 304 72 hstem
          31 86 vstem
          31 477 rmoveto
          -142 87 -79 111 58 46 22 42 36 vhcurveto
          -46 50 rlineto
          -26 -24 -28 -16 -38 hhcurveto
          -71 -45 57 95 93 50 59 69 32 24 -14 -21 23 hvcurveto
          46 51 rlineto
          31 -27 -45 25 -54 hhcurveto
          -112 -92 -86 -141 hvcurveto
          endchar
        </CharString>
        <CharString name="Cacute">
          9 133 callgsubr
          38 175 callsubr
          -87 callgsubr
          435 495 -74 callsubr
          93 hlineto
          endchar
        </CharString>
        <CharString name="Cacute.sc">
          -55 189 callsubr
          hstem
          49 118 -86 callsubr
          399 448 -74 callsubr
          94 hlineto
          endchar
        </CharString>
        <CharString name="Ccaron">
          9 133 callgsubr
          38 175 callsubr
          -87 callgsubr
          350 495 -101 callsubr
        </CharString>
        <CharString name="Ccaron.sc">
          -55 189 callsubr
          hstem
          49 118 -86 callsubr
          314 448 -101 callsubr
        </CharString>
        <CharString name="Ccedilla">
          9 -217 50 178 -21 575 101 64 callsubr
          170 85 vstem
          485 154 rmoveto
          -41 -37 -42 -24 -58 hhcurveto
          -110 -70 90 149 147 76 90 108 50 37 -21 -33 33 hvcurveto
          65 72 rlineto
          44 -41 -66 39 -79 hhcurveto
          -168 -134 -127 -214 -201 112 -118 149 -16 hvcurveto
          -33 -65 rlineto
          -77 callsubr
          -25 20 -34 12 vhcurveto
          17 36 67 8 57 33 45 52 rlinecurve
          endchar
        </CharString>
        <CharString name="Ccedilla.sc">
          -55 -217 50 178 -21 449 96 hstem
          49 118 125 86 vstem
          422 132 rmoveto
          -29 -29 -35 -19 -48 hhcurveto
          -87 -56 64 115 110 62 66 85 41 29 -15 -27 29 hvcurveto
          63 70 rlineto
          37 -37 -58 31 -68 hhcurveto
          -145 -119 -102 -174 -161 93 -92 124 -16 hvcurveto
          -34 -65 87 callsubr
          17 36 58 6 51 24 40 44 rlinecurve
          endchar
        </CharString>
        <CharString name="Ccircumflex">
          9 133 callgsubr
          38 175 callsubr
          -87 callgsubr
          226 379 116 callgsubr
          endchar
        </CharString>
        <CharString name="Ccircumflex.sc">
          -55 189 callsubr
          hstem
          49 118 -86 callsubr
          190 332 116 callsubr
          endchar
        </CharString>
        <CharString name="Cdotaccent">
          9 133 callgsubr
          41 131 64 callsubr
          98 142 -87 callgsubr
          288 382 rmoveto
          -37 callgsubr
        </CharString>
        <CharString name="Cdotaccent.sc">
          -55 115 callgsubr
          59 132 hstem
          49 118 63 142 -86 callsubr
          252 335 -30 callgsubr
        </CharString>
        <CharString name="D">
          58 0 94 466 94 -51 callgsubr
          258 119 vstem
          -66 callgsubr
          endchar
        </CharString>
        <CharString name="D.sc">
          1 0 90 343 90 -51 callgsubr
          201 119 vstem
          -60 callgsubr
          endchar
        </CharString>
        <CharString name="D.sups">
          -148 264 67 298 67 hstem
          53 84 164 87 vstem
          53 264 rmoveto
          123 hlineto
          131 81 74 145 143 -81 70 -135 hvcurveto
          -119 hlineto
          84 -365 rmoveto
          298 32 vlineto
          84 48 -41 -106 -105 -48 -46 -83 hvcurveto
          endchar
        </CharString>
        <CharString name="Dcaron">
          58 0 94 466 94 50 116 -51 callgsubr
          258 119 vstem
          -66 callgsubr
          125 726 -101 callsubr
        </CharString>
        <CharString name="Dcaron.sc">
          -1 0 90 343 90 68 116 -51 callgsubr
          201 119 vstem
          -60 callgsubr
          109 617 -101 callsubr
        </CharString>
        <CharString name="Dcroat">
          -25 callsubr
        </CharString>
        <CharString name="Dcroat.sc">
          -19 callgsubr
        </CharString>
        <CharString name="E">
          -44 callgsubr
          -61 callsubr
          endchar
        </CharString>
        <CharString name="E.sc">
          -45 callsubr
          -61 callgsubr
          endchar
        </CharString>
        <CharString name="E.sups">
          -207 264 69 121 69 104 69 112 callgsubr
          274 69 -190 121 156 69 -156 104 184 69 -268 hlineto
          endchar
        </CharString>
        <CharString name="Eacute">
          -44 callgsubr
          50 116 -61 callsubr
          350 166 23 callgsubr
        </CharString>
        <CharString name="Eacute.sc">
          -45 callsubr
          68 116 -61 callgsubr
          331 184 -74 callsubr
          93 hlineto
          endchar
        </CharString>
        <CharString name="Ebreve">
          -44 callgsubr
          51 61 -61 callsubr
          203 51 73 callgsubr
        </CharString>
        <CharString name="Ebreve.sc">
          -45 callsubr
          69 61 -61 callgsubr
          184 69 rmoveto
          13 callgsubr
        </CharString>
        <CharString name="Ecaron">
          -44 callgsubr
          50 116 -61 callsubr
          265 166 -101 callsubr
        </CharString>
        <CharString name="Ecaron.sc">
          -45 callsubr
          68 116 -61 callgsubr
          246 184 -101 callsubr
        </CharString>
        <CharString name="Ecircumflex">
          -44 callgsubr
          50 116 -61 callsubr
          141 50 116 callgsubr
          endchar
        </CharString>
        <CharString name="Ecircumflex.sc">
          -45 callsubr
          68 116 -61 callgsubr
          122 68 116 callsubr
          endchar
        </CharString>
        <CharString name="Edieresis">
          -44 callgsubr
          54 119 -33 callgsubr
          -65 119 67 119 hintmask 11101000
          -84 callgsubr
          hintmask 11110110
          111 54 44 callsubr
        </CharString>
        <CharString name="Edieresis.sc">
          -45 callsubr
          72 119 -33 callgsubr
          -84 119 66 119 hintmask 11101000
          -85 callsubr
          hintmask 11110110
          91 72 -52 callgsubr
        </CharString>
        <CharString name="Edotaccent">
          -44 callgsubr
          53 131 -33 callgsubr
          16 143 hintmask 11101000
          -84 callgsubr
          hintmask 11111100
          203 53 60 callsubr
        </CharString>
        <CharString name="Edotaccent.sc">
          -45 callsubr
          71 132 -33 callgsubr
          -3 142 hintmask 11101000
          -85 callsubr
          hintmask 11110100
          184 71 -30 callgsubr
        </CharString>
        <CharString name="Egrave">
          -44 callgsubr
          50 116 -61 callsubr
          173 50 62 callsubr
        </CharString>
        <CharString name="Egrave.sc">
          -45 callsubr
          68 116 -61 callgsubr
          154 68 4 callsubr
        </CharString>
        <CharString name="Emacron">
          -44 callgsubr
          70 76 -33 callgsubr
          -45 265 hintmask 11111000
          -84 callgsubr
          hintmask 11110100
          71 70 113 callsubr
          endchar
        </CharString>
        <CharString name="Emacron.sc">
          -45 callsubr
          88 76 -33 callgsubr
          -65 266 hintmask 11111000
          -85 callsubr
          hintmask 11110100
          51 88 8 callgsubr
        </CharString>
        <CharString name="Eogonek">
          -29 -218 78 140 98 193 98 167 98 -51 callgsubr
          108 87 vstem
          83 hmoveto
          301 hlineto
          -36 -22 -41 -47 -58 vvcurveto
          16 callgsubr
          -22 13 29 48 43 46 45 4 hvcurveto
          5 -91 callsubr
          endchar
        </CharString>
        <CharString name="Eogonek.sc">
          -80 -218 78 140 -22 callgsubr
          -51 callgsubr
          58 86 vstem
          83 hmoveto
          251 hlineto
          -36 -22 -41 -47 -58 vvcurveto
          -59 47 -32 58 31 39 111 callsubr
          -22 -23 13 29 48 43 46 46 4 hvcurveto
          4 -90 callgsubr
          endchar
        </CharString>
        <CharString name="Eth">
          -25 callsubr
        </CharString>
        <CharString name="Eth.sc">
          -19 callgsubr
        </CharString>
        <CharString name="Euro">
          -54 -12 90 147 61 59 61 152 90 hstem
          78 116 vstem
          440 141 rmoveto
          -41 -30 -32 -22 -43 hhcurveto
          -68 -47 54 93 -18 hvcurveto
          193 61 -200 hlineto
          -1 11 0 11 12 vvcurveto
          9 0 8 1 8 vhcurveto
          240 61 -234 hlineto
          96 16 48 56 72 hhcurveto
          38 30 -21 -30 26 hvcurveto
          65 63 rlineto
          48 -38 -58 30 -60 hhcurveto
          -132 -96 -89 -154 -27 hvcurveto
          -63 -4 rlineto
          -56 57 vlineto
          -1 -9 0 -10 -10 vvcurveto
          -11 0 -10 1 -10 vhcurveto
          -57 -4 rlineto
          -56 63 vlineto
          -153 27 93 -84 123 hhcurveto
          73 58 34 59 46 hvcurveto
          endchar
        </CharString>
        <CharString name="F">
          -57 21 -21 273 98 185 98 -43 callgsubr
          273 238 98 -238 185 279 98 -395 hlineto
          endchar
        </CharString>
        <CharString name="F.sc">
          -107 21 -21 207 88 133 95 -43 callgsubr
          207 196 88 -196 133 229 95 -345 hlineto
          endchar
        </CharString>
        <CharString name="F.sups">
          -225 441 69 117 69 112 callgsubr
          84 177 158 69 -158 117 185 69 -269 hlineto
          endchar
        </CharString>
        <CharString name="G">
          50 callgsubr
          64 callsubr
          294 104 vstem
          -99 callgsubr
          endchar
        </CharString>
        <CharString name="G.sc">
          49 callsubr
          hstem
          49 203 callsubr
          103 vstem
          -98 callgsubr
          endchar
        </CharString>
        <CharString name="G.sups">
          -146 256 72 105 68 131 72 hstem
          31 86 189 76 vstem
          31 479 rmoveto
          -144 90 -79 118 59 52 24 28 32 vhcurveto
          193 -155 -68 79 -88 vlineto
          -11 -12 -23 -6 -24 hhcurveto
          -85 -45 58 95 94 51 57 74 41 23 -14 -21 22 hvcurveto
          47 54 rlineto
          27 -30 -42 26 -61 hhcurveto
          -119 -92 -84 -141 hvcurveto
          endchar
        </CharString>
        <CharString name="Gbreve">
          50 callgsubr
          39 61 64 callsubr
          294 104 vstem
          -99 callgsubr
          311 380 73 callgsubr
        </CharString>
        <CharString name="Gbreve.sc">
          49 callsubr
          57 61 hstem
          49 203 callsubr
          103 vstem
          -98 callgsubr
          265 333 rmoveto
          13 callgsubr
        </CharString>
        <CharString name="Gcaron">
          50 callgsubr
          38 175 callsubr
          294 104 vstem
          -99 callgsubr
          373 495 -101 callsubr
        </CharString>
        <CharString name="Gcaron.sc">
          49 callsubr
          56 116 hstem
          49 203 callsubr
          103 vstem
          -98 callgsubr
          327 448 -101 callsubr
        </CharString>
        <CharString name="Gcircumflex">
          50 callgsubr
          38 175 callsubr
          294 104 vstem
          -99 callgsubr
          249 379 116 callgsubr
          endchar
        </CharString>
        <CharString name="Gcircumflex.sc">
          49 callsubr
          56 116 hstem
          49 203 callsubr
          103 vstem
          -98 callgsubr
          203 332 116 callsubr
          endchar
        </CharString>
        <CharString name="Gdotaccent">
          50 callgsubr
          41 131 147 callgsubr
          121 143 30 104 hintmask 11101010
          -99 callgsubr
          hintmask 11111110
          311 382 60 callsubr
        </CharString>
        <CharString name="Gdotaccent.sc">
          49 callsubr
          59 132 hstemhm
          49 118 76 142 13 103 hintmask 11101010
          -98 callgsubr
          hintmask 11111110
          265 335 -30 callgsubr
        </CharString>
        <CharString name="H">
          96 21 -21 290 101 263 -20 -51 callgsubr
          265 116 vstem
          -5 callgsubr
          endchar
        </CharString>
        <CharString name="H.sc">
          41 21 -21 221 100 202 -20 -51 callgsubr
          210 19 callgsubr
          endchar
        </CharString>
        <CharString name="H.sups">
          -124 453 72 hstem
          53 84 170 84 vstem
          53 264 rmoveto
          84 189 170 -189 84 432 -84 -171 -170 171 -84 hlineto
          endchar
        </CharString>
        <CharString name="Hbar">
          133 21 -21 290 101 98 59 -59 165 hstemhm
          103 116 265 116 hintmask 11011100
          484 391 rmoveto
          -265 98 265 hlineto
          hintmask 11101100
          187 59 rmoveto
          -71 hlineto
          hintmask 11011100
          106 -116 vlineto
          hintmask 11101100
          -106 -265 vlineto
          hintmask 11011100
          106 -116 vlineto
          hintmask 11101100
          -106 vlineto
          -75 -5 rlineto
          hintmask 11011100
          -54 75 -489 116 290 265 -290 116 489 71 vlineto
          endchar
        </CharString>
        <CharString name="Hbar.sc">
          79 21 -21 227 88 71 58 -58 137 hstemhm
          103 116 210 116 hintmask 11011100
          429 315 rmoveto
          -210 71 210 hlineto
          hintmask 11101100
          188 58 rmoveto
          -72 hlineto
          hintmask 11011100
          79 -116 vlineto
          hintmask 11101100
          -79 -210 vlineto
          hintmask 11011100
          79 -116 vlineto
          hintmask 11101100
          -79 vlineto
          -75 -5 rlineto
          hintmask 11011100
          -53 75 -386 116 227 210 -227 116 386 72 vlineto
          endchar
        </CharString>
        <CharString name="Hcircumflex">
          96 21 -21 290 101 263 -20 70 116 -51 callgsubr
          265 116 vstem
          -5 callgsubr
          186 50 116 callgsubr
          endchar
        </CharString>
        <CharString name="Hcircumflex.sc">
          41 21 -21 221 100 202 -20 88 116 -51 callgsubr
          210 19 callgsubr
          159 68 116 callsubr
          endchar
        </CharString>
        <CharString name="I">
          67 callsubr
          9 callsubr
          endchar
        </CharString>
        <CharString name="I.a">
          50 callsubr
          hstem
          127 116 vstem
          -76 callgsubr
          endchar
        </CharString>
        <CharString name="I.sc">
          68 callsubr
          hstem
          83 116 vstem
          92 callsubr
          endchar
        </CharString>
        <CharString name="I.sups">
          -377 187 callgsubr
          432 -84 hlineto
          endchar
        </CharString>
        <CharString name="Iacute">
          -2 callsubr
          205 166 -74 callsubr
          94 hlineto
          endchar
        </CharString>
        <CharString name="Iacute.a">
          50 callsubr
          50 116 hstem
          127 116 vstem
          -76 callgsubr
          283 722 -74 callsubr
          94 hlineto
          endchar
        </CharString>
        <CharString name="Iacute.sc">
          68 callsubr
          88 116 hstem
          83 116 vstem
          92 callsubr
          205 184 -74 callsubr
          94 hlineto
          endchar
        </CharString>
        <CharString name="Icircumflex">
          -2 callsubr
          -4 50 116 callgsubr
          endchar
        </CharString>
        <CharString name="Icircumflex.a">
          50 callsubr
          50 116 hstem
          127 116 vstem
          -76 callgsubr
          74 606 116 callgsubr
          endchar
        </CharString>
        <CharString name="Icircumflex.sc">
          68 callsubr
          88 116 hstem
          83 116 vstem
          92 callsubr
          -4 68 116 callsubr
          endchar
        </CharString>
        <CharString name="Idieresis">
          67 callsubr
          74 119 hstemhm
          -11 191 callsubr
          hintmask 11101000
          83 hmoveto
          116 179 callgsubr
          hlineto
          hintmask 11110100
          -35 54 -53 callsubr
        </CharString>
        <CharString name="Idieresis.a">
          50 callsubr
          54 119 hstemhm
          33 191 callsubr
          hintmask 11001000
          -76 callgsubr
          hintmask 11110100
          43 610 -53 callsubr
        </CharString>
        <CharString name="Idieresis.sc">
          68 callsubr
          92 119 hstemhm
          -11 191 callsubr
          hintmask 11101000
          92 callsubr
          hintmask 11110100
          -35 72 -53 callsubr
        </CharString>
        <CharString name="Idotaccent">
          67 callsubr
          73 131 9 callsubr
          58 53 rmoveto
          -37 callgsubr
        </CharString>
        <CharString name="Idotaccent.a">
          50 callsubr
          53 131 hstemhm
          114 142 -129 116 hintmask 11001000
          -76 callgsubr
          hintmask 11110000
          136 609 rmoveto
          -37 callgsubr
        </CharString>
        <CharString name="Idotaccent.sc">
          68 callsubr
          91 132 hstemhm
          70 142 -129 116 hintmask 11101000
          92 callsubr
          hintmask 11110000
          58 71 -30 callgsubr
        </CharString>
        <CharString name="Igrave">
          -2 callsubr
          28 50 4 callsubr
        </CharString>
        <CharString name="Igrave.a">
          50 callsubr
          50 116 hstem
          127 116 vstem
          -76 callgsubr
          106 606 4 callsubr
        </CharString>
        <CharString name="Igrave.sc">
          68 callsubr
          88 116 hstem
          83 116 vstem
          92 callsubr
          28 68 4 callsubr
        </CharString>
        <CharString name="Imacron">
          67 callsubr
          90 76 9 callsubr
          -75 70 8 callgsubr
        </CharString>
        <CharString name="Imacron.a">
          50 callsubr
          70 76 hstemhm
          52 266 -191 116 hintmask 11101000
          -76 callgsubr
          hintmask 11110000
          3 626 8 callgsubr
        </CharString>
        <CharString name="Imacron.sc">
          68 callsubr
          108 76 hstem
          83 116 vstem
          92 callsubr
          -75 88 8 callgsubr
        </CharString>
        <CharString name="Iogonek">
          -285 200 callgsubr
          654 21 callgsubr
          179 callgsubr
          vlineto
          endchar
        </CharString>
        <CharString name="Iogonek.a">
          -197 -218 78 140 98 458 98 hstemhm
          86 86 -45 116 hintmask 11110000
          49 hmoveto
          106 hlineto
          -29 -23 -40 -47 -57 vvcurveto
          -59 46 -32 59 31 39 73 callsubr
          34 22 35 37 29 hvcurveto
          hintmask 01101000
          89 98 -77 458 77 98 -271 -98 78 -458 hlineto
          hintmask 01110000
          -78 hlineto
          endchar
        </CharString>
        <CharString name="Iogonek.sc">
          -285 200 callgsubr
          523 21 callgsubr
          182 callsubr
          vlineto
          endchar
        </CharString>
        <CharString name="Itilde">
          67 callsubr
          73 183 callsubr
          -16 60 39 116 39 61 hintmask 11010100
          83 hmoveto
          116 179 callgsubr
          hlineto
          hintmask 11100110
          120 53 rmoveto
          hintmask 11010110
          -26 callgsubr
          -61 hlineto
          hintmask 11100110
          -33 -6 -15 -15 59 callgsubr
        </CharString>
        <CharString name="Itilde.a">
          50 callsubr
          53 183 callsubr
          49 39 39 116 39 61 hintmask 11101110
          -76 callgsubr
          198 609 rmoveto
          hintmask 11011110
          -26 callgsubr
          -61 hlineto
          hintmask 11101110
          154 callgsubr
          hintmask 11011110
          161 callgsubr
          hintmask 11101110
          10 callgsubr
          hintmask 11011110
          176 callgsubr
          hintmask 11101110
          115 callsubr
          endchar
        </CharString>
        <CharString name="Itilde.sc">
          -285 228 callgsubr
          -16 60 39 116 39 61 hintmask 11010100
          92 callsubr
          hintmask 11100110
          120 71 rmoveto
          hintmask 11010110
          -26 callgsubr
          -61 hlineto
          hintmask 11100110
          -32 -6 -15 -16 59 callgsubr
        </CharString>
        <CharString name="J">
          -73 35 callsubr
          46 callgsubr
          endchar
        </CharString>
        <CharString name="J.sc">
          -113 -12 97 438 -20 53 callsubr
          endchar
        </CharString>
        <CharString name="J.sups">
          -234 256 72 hstem
          198 83 vstem
          14 332 rmoveto
          -50 28 42 -26 61 hhcurveto
          96 40 66 81 hvcurveto
          293 -83 -286 vlineto
          -62 -21 -20 -39 -27 -23 13 32 -17 vhcurveto
          endchar
        </CharString>
        <CharString name="Jcircumflex">
          -73 35 callsubr
          70 116 46 callgsubr
          188 546 116 callgsubr
          endchar
        </CharString>
        <CharString name="Jcircumflex.sc">
          -113 -12 97 438 -20 88 116 53 callsubr
          146 451 116 callsubr
          endchar
        </CharString>
        <CharString name="K">
          30 52 callsubr
          hstem
          83 116 vstem
          -21 callgsubr
          endchar
        </CharString>
        <CharString name="K.sc">
          -32 52 callgsubr
          hstem
          83 116 vstem
          -18 callsubr
          endchar
        </CharString>
        <CharString name="K.sups">
          -166 187 callgsubr
          126 hlineto
          61 74 114 -200 rlineto
          92 hlineto
          -157 264 134 168 rlineto
          -93 hlineto
          -148 -190 rlineto
          -3 190 -84 hlineto
          endchar
        </CharString>
        <CharString name="L">
          -65 0 98 556 -20 hstem
          83 116 186 callsubr
          endchar
        </CharString>
        <CharString name="L.sc">
          214 callsubr
          hstem
          83 116 185 callgsubr
          endchar
        </CharString>
        <CharString name="L.sups">
          -230 264 69 112 callgsubr
          264 69 -180 363 -84 hlineto
          endchar
        </CharString>
        <CharString name="Lacute">
          -65 0 98 556 -20 70 116 hstem
          83 116 186 callsubr
          208 166 23 callgsubr
        </CharString>
        <CharString name="Lacute.sc">
          214 callsubr
          88 116 hstem
          83 116 185 callgsubr
          210 184 -74 callsubr
          93 hlineto
          endchar
        </CharString>
        <CharString name="Lcaron">
          -65 0 98 414 217 -75 160 callsubr
          142 74 hintmask 10111000
          80 callsubr
          hintmask 11011000
          312 -142 rmoveto
          19 154 2 63 rlineto
          -77 hlineto
          4 233 callgsubr
        </CharString>
        <CharString name="Lcaron.sc">
          -113 0 95 309 119 -119 217 -98 160 callsubr
          121.5 74 hintmask 10011100
          79 callsubr
          hintmask 11001100
          292 -119 rmoveto
          hintmask 10101100
          19 141 callsubr
          hintmask 11001100
          5 233 callgsubr
        </CharString>
        <CharString name="Ldot">
          -65 0 98 151 156 249 -20 -51 callgsubr
          120 149 186 callsubr
          236 -327 rmoveto
          -74 callgsubr
          endchar
        </CharString>
        <CharString name="Ldot.sc">
          -113 0 95 130 156 142 -20 -51 callgsubr
          92 149 185 callgsubr
          208 -220 rmoveto
          -74 callgsubr
          endchar
        </CharString>
        <CharString name="Lslash">
          -60 0 98 556 -20 hstem
          90 116 vstem
          206 98 rmoveto
          180 vlineto
          179 97 rlineto
          91 vlineto
          -179 -97 rlineto
          285 -116 -338 vlineto
          -78 -45 rlineto
          -91 vlineto
          78 45 rlineto
          -225 387 98 vlineto
          endchar
        </CharString>
        <CharString name="Lslash.sc">
          214 callsubr
          hstem
          90 116 vstem
          206 95 rmoveto
          119 vlineto
          149 81 rlineto
          87 vlineto
          -149 -80 rlineto
          221 -116 -274 vlineto
          -78 -45 rlineto
          -88 vlineto
          78 45 rlineto
          -161 339 95 vlineto
          endchar
        </CharString>
        <CharString name="M">
          178 21 -21 61 147 299 147 hstem
          83 107 363 -9 callsubr
          endchar
        </CharString>
        <CharString name="M.sc">
          99 21 -21 46 142 195 140 hstem
          83 105 291 1 callgsubr
          endchar
        </CharString>
        <CharString name="M.sups">
          -67 264 432 -392 106 180 106 hstemhm
          53 77 239 79 hintmask 10011000
          53 264 rmoveto
          77 187 hlineto
          41 -7 59 -3 39 vhcurveto
          2 hlineto
          36 -98 rlineto
          hintmask 01111000
          74 -188 rlineto
          36 hlineto
          73 188 37 98 rlineto
          2 hlineto
          -4 -39 -7 -59 -41 vvcurveto
          -187 79 432 -92 vlineto
          -74 -206 -28 -80 rlineto
          -3 hlineto
          -28 80 -79 206 rlineto
          -91 hlineto
          endchar
        </CharString>
        <CharString name="N">
          89 0 90 callgsubr
          268 111 hintmask 01011100
          77 callsubr
          hintmask 01101100
          -77 callgsubr
          hintmask 10011100
          -56 callgsubr
          endchar
        </CharString>
        <CharString name="N.sc">
          29 0 99 callsubr
          216 106 hintmask 01011100
          107 callgsubr
          hintmask 01101100
          -76 callsubr
          hintmask 10011100
          -56 callsubr
          endchar
        </CharString>
        <CharString name="N.sups">
          -129 264 104 224 104 hstem
          53 78 177 78 vstem
          53 264 rmoveto
          78 180 hlineto
          48 -5 53 -4 47 vhcurveto
          3 hlineto
          45 -92 129 -236 rlineto
          87 432 -78 -177 hlineto
          -49 5 -57 4 -45 vhcurveto
          -3 hlineto
          -44 94 -129 234 rlineto
          -88 hlineto
          endchar
        </CharString>
        <CharString name="Nacute">
          89 0 6 callgsubr
          70 116 hstemhm
          83 111 268 111 hintmask 01011110
          77 callsubr
          hintmask 01101110
          -77 callgsubr
          hintmask 10011110
          -56 callgsubr
          394 166 -74 callsubr
          93 hlineto
          endchar
        </CharString>
        <CharString name="Nacute.sc">
          29 0 6 callsubr
          88 116 hstemhm
          83 107 216 106 hintmask 01011110
          107 callgsubr
          hintmask 01101110
          -76 callsubr
          hintmask 10011110
          -56 callsubr
          370 184 23 callgsubr
        </CharString>
        <CharString name="Ncaron">
          89 0 6 callgsubr
          70 116 hstemhm
          83 111 268 111 hintmask 01011110
          77 callsubr
          hintmask 01101110
          -77 callgsubr
          hintmask 10011110
          -56 callgsubr
          309 166 -101 callsubr
        </CharString>
        <CharString name="Ncaron.sc">
          29 0 6 callsubr
          88 116 hstemhm
          83 107 216 106 hintmask 01011110
          107 callgsubr
          hintmask 01101110
          -76 callsubr
          hintmask 10011110
          -56 callsubr
          285 184 -101 callsubr
        </CharString>
        <CharString name="Ntilde">
          89 0 6 callgsubr
          73 183 callsubr
          83 111 -22 61 194 61 -26 111 hintmask 0101011001000000
          77 callsubr
          hintmask 0110011001000000
          -77 callgsubr
          hintmask 1001011001000000
          -56 callgsubr
          hintmask 0101101010000000
          309 53 rmoveto
          hintmask 0101011010000000
          -26 callgsubr
          -61 hlineto
          hintmask 0101101010000000
          154 callgsubr
          hintmask 0101010101000000
          193 callgsubr
          hintmask 0101100101000000
          -27 callsubr
          61 hlineto
          hintmask 0101010101000000
          130 callgsubr
          hintmask 0101101010000000
          166 callsubr
        </CharString>
        <CharString name="Ntilde.sc">
          29 0 6 callsubr
          91 183 callsubr
          83 107 -41 60 197 106 hintmask 0101011010000000
          107 callgsubr
          hintmask 0110011010000000
          -76 callsubr
          hintmask 1001101010000000
          -56 callsubr
          285 71 rmoveto
          hintmask 0101011010000000
          -26 callgsubr
          -60 hlineto
          hintmask 0101101010000000
          -32 -7 -15 -16 -18 hhcurveto
          hintmask 0101010110000000
          161 callgsubr
          hintmask 0101100110000000
          10 callgsubr
          hintmask 0101010110000000
          33 7 14 16 19 hhcurveto
          hintmask 1001101010000000
          115 callsubr
          endchar
        </CharString>
        <CharString name="O">
          -26 callsubr
          64 callsubr
          338 120 vstem
          -106 callgsubr
          endchar
        </CharString>
        <CharString name="O.sc">
          94 callsubr
          64 callsubr
          267 119 vstem
          -104 callgsubr
          endchar
        </CharString>
        <CharString name="O.sups">
          -115 256 72 304 72 hstem
          31 86 218 86 vstem
          226 256 rmoveto
          115 80 86 140 139 -80 83 -115 -115 -80 -82 -140 -140 80 -86 115 hvcurveto
          72 vmoveto
          -67 -42 61 93 94 42 56 67 66 43 -56 -94 -93 -43 -61 -66 hvcurveto
          endchar
        </CharString>
        <CharString name="OE">
          292 0 94 -94 98 193 98 167 98 -94 94 147 callgsubr
          252 116 hintmask 01110110
          49 330 rmoveto
          -217 130 -113 192 vhcurveto
          437 98 -272 193 220 98 -220 167 262 98 -421 hlineto
          -198 -130 -108 -216 hvcurveto
          hintmask 10101110
          119 hmoveto
          162 81 68 135 vhcurveto
          36 -466 -36 hlineto
          -135 -81 74 162 hvcurveto
          endchar
        </CharString>
        <CharString name="OE.sc">
          184 0 -22 callgsubr
          64 callsubr
          189 116 vstem
          179 callsubr
          -180 112 -79 173 vhcurveto
          366 90 -227 137 183 85 -183 121 217 90 -363 hlineto
          -166 -112 -82 -182 hvcurveto
          308 174 rmoveto
          -342 -28 vlineto
          -106 -55 54 114 118 55 56 106 hvcurveto
          endchar
        </CharString>
        <CharString name="Oacute">
          93 callgsubr
          hstem
          49 119 338 120 vstem
          -106 callgsubr
          147 731 -74 callsubr
          94 hlineto
          endchar
        </CharString>
        <CharString name="Oacute.sc">
          36 189 callsubr
          hstem
          49 119 267 119 vstem
          -104 callgsubr
          147 623 -74 callsubr
          93 hlineto
          endchar
        </CharString>
        <CharString name="Ocircumflex">
          93 callgsubr
          hstem
          49 119 338 120 vstem
          -106 callgsubr
          -62 615 116 callgsubr
          endchar
        </CharString>
        <CharString name="Ocircumflex.sc">
          36 189 callsubr
          hstem
          49 119 267 119 vstem
          -104 callgsubr
          -62 507 116 callsubr
          endchar
        </CharString>
        <CharString name="Odieresis">
          -26 callsubr
          42 119 147 callgsubr
          17 119 66 120 16 120 hintmask 11010010
          -106 callgsubr
          hintmask 11111110
          -93 619 -53 callsubr
        </CharString>
        <CharString name="Odieresis.sc">
          94 callsubr
          60 119 147 callgsubr
          -18 119 66 119 -19 119 hintmask 11110010
          -104 callgsubr
          hintmask 11101100
          -93 511 -52 callgsubr
        </CharString>
        <CharString name="Ograve">
          93 callgsubr
          hstem
          49 119 338 120 vstem
          -106 callgsubr
          -30 615 4 callsubr
        </CharString>
        <CharString name="Ograve.sc">
          36 189 callsubr
          hstem
          49 119 267 119 vstem
          -104 callgsubr
          -30 507 4 callsubr
        </CharString>
        <CharString name="Ohorn">
          -26 callsubr
          hstemhm
          50 120 338 119 -83 91 hintmask 11110000
          339 89 -58 callgsubr
          hintmask 11101000
          -82 callsubr
          hintmask 11110000
          2 callsubr
          hintmask 11101000
          62 17 41 35 61 7 callsubr
        </CharString>
        <CharString name="Ohorn.sc">
          94 callsubr
          112 callsubr
          -56 91 hintmask 11110000
          302 84 -59 callsubr
          hintmask 11101000
          -79 callsubr
          hintmask 11110000
          32 callsubr
          hintmask 11101000
          56 16 40 35 60 -42 callsubr
        </CharString>
        <CharString name="Ohungarumlaut">
          93 callgsubr
          hstem
          49 119 338 120 vstem
          -106 callgsubr
          -43 615 rmoveto
          86 45 callgsubr
        </CharString>
        <CharString name="Ohungarumlaut.sc">
          36 189 callsubr
          hstem
          49 119 267 119 vstem
          -104 callgsubr
          -44 507 rmoveto
          87 45 callgsubr
        </CharString>
        <CharString name="Omacron">
          -26 callsubr
          58 76 64 callsubr
          36 266 36 120 vstem
          -106 callgsubr
          -133 635 8 callgsubr
        </CharString>
        <CharString name="Omacron.sc">
          94 callsubr
          76 76 147 callgsubr
          1 266 0 119 hintmask 11110100
          -104 callgsubr
          hintmask 11101000
          -133 527 8 callgsubr
        </CharString>
        <CharString name="Oslash">
          -26 callsubr
          hstem
          50 120 338 119 vstem
          489 450 rmoveto
          12 -33 7 -41 -46 vvcurveto
          -147 -66 -94 -103 -40 -35 14 27 -27 vhcurveto
          -45 69 rmoveto
          -14 36 -8 45 50 vvcurveto
          146 66 89 103 43 36 -15 -28 28 vhcurveto
          194 120 rmoveto
          -62 48 -64 -82 rlineto
          38 -47 -60 20 -68 hhcurveto
          -171 -118 -125 -211 -94 23 -78 41 -58 hvcurveto
          -69 -88 61 -48 62 79 rlineto
          -36 47 58 -19 66 hhcurveto
          170 118 130 212 90 -21 74 -38 56 hvcurveto
          endchar
        </CharString>
        <CharString name="Oslash.sc">
          36 -12 90 367 90 hstem
          49 113 279 113 vstem
          425 360 rmoveto
          10 -27 6 -32 -37 vvcurveto
          -114 -54 -72 -85 -36 -31 13 23 -23 vhcurveto
          -33 51 rmoveto
          -11 28 -6 33 38 vvcurveto
          114 54 67 86 36 30 -12 -22 23 vhcurveto
          165 101 rmoveto
          -46 36 -53 -61 rlineto
          31 -41 -54 17 -60 hhcurveto
          -150 -103 -99 -172 -76 20 -63 36 -46 hvcurveto
          -58 -67 46 -36 53 61 rlineto
          -32 42 53 -17 61 hhcurveto
          148 104 104 172 75 -20 62 -35 45 hvcurveto
          endchar
        </CharString>
        <CharString name="Otilde">
          -26 callsubr
          41 214 callgsubr
          12 60 194 61 11 120 hintmask 11011001
          -106 callgsubr
          hintmask 11101011
          62 618 rmoveto
          hintmask 11011011
          -26 callgsubr
          -61 hlineto
          hintmask 11101011
          154 callgsubr
          hintmask 11011101
          161 callgsubr
          hintmask 11101101
          10 callgsubr
          hintmask 11011101
          176 callgsubr
          hintmask 11101011
          115 callsubr
          endchar
        </CharString>
        <CharString name="Otilde.sc">
          117 callgsubr
          hintmask 11011001
          -104 callgsubr
          hintmask 11101010
          62 510 rmoveto
          hintmask 11011010
          -26 callgsubr
          -61 hlineto
          hintmask 11101010
          177 callgsubr
          hintmask 11010101
          193 callgsubr
          hintmask 11100101
          -27 callsubr
          61 hlineto
          hintmask 11010101
          130 callgsubr
          hintmask 11101010
          166 callsubr
        </CharString>
        <CharString name="P">
          25 21 -21 240 93 228 93 -51 callgsubr
          239 114 vstem
          83 hmoveto
          116 240 104 hlineto
          141 108 67 145 152 -106 50 -143 hvcurveto
          -220 hlineto
          116 -321 rmoveto
          228 95 vlineto
          95 49 -27 -82 -80 -47 -39 -97 hvcurveto
          endchar
        </CharString>
        <CharString name="P.sc">
          -32 21 -21 182 80 170 91 -51 callgsubr
          186 111 vstem
          83 hmoveto
          116 182 80 hlineto
          120 97 52 122 126 -95 41 -122 hvcurveto
          -196 hlineto
          116 -261 rmoveto
          170 73 vlineto
          76 37 -23 -59 -57 -36 -31 -75 hvcurveto
          endchar
        </CharString>
        <CharString name="P.sups">
          -170 419 66 145 66 hstem
          53 84 154 82 vstem
          53 264 rmoveto
          84 155 68 hlineto
          93 75 45 98 100 -73 34 -95 hvcurveto
          -152 hlineto
          84 -211 rmoveto
          145 61 vlineto
          61 32 -18 -50 -51 -31 -26 -62 hvcurveto
          endchar
        </CharString>
        <CharString name="Q">
          107 -171 94 94 -21 569 101 64 callsubr
          338 120 vstem
          168 330 rmoveto
          146 66 89 103 103 66 -89 -146 -153 -66 -94 -103 -103 -66 94 153 vhcurveto
          461 -396 rmoveto
          -6 -19 -23 -5 -29 hhcurveto
          -63 -59 21 52 -30 hvcurveto
          133 30 87 122 182 vvcurveto
          211 -118 125 -171 -170 -118 -125 -211 -189 93 -123 141 -25 vhcurveto
          -96 42 90 -68 130 hhcurveto
          45 38 8 10 22 hvcurveto
          endchar
        </CharString>
        <CharString name="Q.sc">
          35 -161 91 85 -21 445 96 hstem
          48 119 267 119 vstem
          167 264 rmoveto
          110 51 65 83 81 52 -65 -110 -117 -52 -70 -81 -83 -51 70 117 vhcurveto
          382 -325 rmoveto
          -5 -17 -20 -4 -24 hhcurveto
          -55 -47 14 50 -25 hvcurveto
          115 25 77 97 148 vvcurveto
          171 -104 100 -148 -150 -103 -99 -172 -149 77 -98 118 -23 vhcurveto
          -92 37 75 -63 120 hhcurveto
          41 34 7 10 20 hvcurveto
          endchar
        </CharString>
        <CharString name="Q.sups">
          -115 150 68 414 72 hstem
          29 86 219 86 vstem
          115 482 rmoveto
          94 42 56 67 67 43 -56 -94 -96 -43 -61 -67 -67 -42 61 96 vhcurveto
          308 -258 rmoveto
          -3 -13 -15 -3 -20 hhcurveto
          -41 -39 11 33 -21 hvcurveto
          88 22 58 80 118 vvcurveto
          139 -81 83 -115 -115 -80 -82 -140 -124 63 -82 94 -17 vhcurveto
          -64 28 62 -45 89 hhcurveto
          32 26 6 7 15 hvcurveto
          endchar
        </CharString>
        <CharString name="R">
          32 21 215 callsubr
          -51 callgsubr
          231 114 vstem
          199 561 -10 callgsubr
          371 -348 rmoveto
          -156 273 rlineto
          -65 callsubr
          endchar
        </CharString>
        <CharString name="R.sc">
          -25 21 144 callgsubr
          -51 callgsubr
          181 110 vstem
          199 432 62 callgsubr
          315 -272 rmoveto
          -129 210 rlineto
          -64 callgsubr
          endchar
        </CharString>
        <CharString name="R.sups">
          -165 429 66 135 66 hstem
          53 84 148 83 vstem
          137 630 rmoveto
          59 hlineto
          58 31 -18 -47 -46 -31 -24 -58 hvcurveto
          -59 hlineto
          249 -231 rmoveto
          -103 179 rlineto
          51 19 34 42 63 vvcurveto
          97 -72 32 -92 vhcurveto
          -151 -432 84 165 65 hlineto
          90 -165 rlineto
          endchar
        </CharString>
        <CharString name="Racute">
          122 callsubr
          449 197 callgsubr
          -133 -143 -10 callgsubr
          371 -348 rmoveto
          -156 273 rlineto
          -65 callsubr
          endchar
        </CharString>
        <CharString name="Racute.sc">
          -25 21 144 callgsubr
          68 116 -51 callgsubr
          181 110 vstem
          438 707 -74 callsubr
          93 hlineto
          -122 -159 62 callgsubr
          315 -272 rmoveto
          -129 210 rlineto
          -64 callgsubr
          endchar
        </CharString>
        <CharString name="Rcaron">
          122 callsubr
          358 704 11 callsubr
          -47 -143 -10 callgsubr
          371 -348 rmoveto
          -156 273 rlineto
          -65 callsubr
          endchar
        </CharString>
        <CharString name="Rcaron.sc">
          -25 21 144 callgsubr
          68 116 -51 callgsubr
          181 110 vstem
          347 591 11 callsubr
          -36 -159 62 callgsubr
          315 -272 rmoveto
          -129 210 rlineto
          -64 callgsubr
          endchar
        </CharString>
        <CharString name="S">
          -22 133 callgsubr
          hstem
          67 117 206 119 vstem
          -99 callsubr
          endchar
        </CharString>
        <CharString name="S.sc">
          -78 178 callgsubr
          hstem
          68 115 154 116 vstem
          38 63 -103 callsubr
          endchar
        </CharString>
        <CharString name="S.sups">
          -202 256 72 307 70 hstem
          43 85 130 84 vstem
          24 320 rmoveto
          -42 43 57 -22 60 hhcurveto
          100 58 60 75 58 -30 28 -57 25 hvcurveto
          -59 25 rlineto
          -36 15 -32 13 32 vvcurveto
          29 22 19 40 39 30 -15 -23 28 vhcurveto
          43 52 rlineto
          34 -36 -50 22 -51 hhcurveto
          -88 -62 -55 -69 -62 41 -31 48 -21 hvcurveto
          60 -26 rlineto
          38 -16 28 -11 -33 vvcurveto
          -30 -22 -23 -47 -41 -44 18 30 -31 vhcurveto
          endchar
        </CharString>
        <CharString name="Sacute">
          -22 133 callgsubr
          38 116 hstem
          67 117 206 119 vstem
          -99 callsubr
          326 657 -74 callsubr
          94 hlineto
          endchar
        </CharString>
        <CharString name="Sacute.sc">
          -78 178 callgsubr
          55 116 hstem
          68 115 154 116 vstem
          38 63 -103 callsubr
          314 566 -74 callsubr
          93 hlineto
          endchar
        </CharString>
        <CharString name="Scaron">
          -22 133 callgsubr
          38 116 hstem
          67 117 206 119 vstem
          -99 callsubr
          241 657 -101 callsubr
        </CharString>
        <CharString name="Scaron.sc">
          -78 178 callgsubr
          55 116 hstem
          68 115 154 116 vstem
          38 63 -103 callsubr
          229 566 -101 callsubr
        </CharString>
        <CharString name="Scircumflex">
          -22 133 callgsubr
          38 116 hstem
          67 117 206 119 vstem
          -99 callsubr
          117 541 116 callgsubr
          endchar
        </CharString>
        <CharString name="Scircumflex.sc">
          -78 178 callgsubr
          55 116 hstem
          68 115 154 116 vstem
          38 63 -103 callsubr
          105 450 116 callsubr
          endchar
        </CharString>
        <CharString name="T">
          -21 21 -21 556 98 hstem
          215 116 vstem
          14 callgsubr
          endchar
        </CharString>
        <CharString name="T.sc">
          -88 21 -21 428 95 hstem
          182 116 vstem
          14 callsubr
          endchar
        </CharString>
        <CharString name="T.sups">
          -201 627 69 hstem
          142 84 vstem
          142 264 rmoveto
          84 363 124 69 -334 -69 126 hlineto
          endchar
        </CharString>
        <CharString name="Tcaron">
          -21 21 -21 556 98 50 116 hstem
          215 116 vstem
          14 callgsubr
          120 264 -101 callsubr
        </CharString>
        <CharString name="Tcaron.sc">
          -88 21 -21 428 95 68 116 hstem
          182 116 vstem
          14 callsubr
          120 279 -101 callsubr
        </CharString>
        <CharString name="Thorn">
          33 21 -21 136 93 228 93 104 -20 -51 callgsubr
          239 114 vstem
          83 hmoveto
          116 136 104 hlineto
          141 108 66 146 151 -106 51 -143 hvcurveto
          -104 104 -116 hlineto
          116 -425 rmoveto
          228 95 vlineto
          95 49 -28 -81 -80 -47 -39 -97 hvcurveto
          endchar
        </CharString>
        <CharString name="Thorn.sc">
          -23 0 187 -85 85 168 85 -85 168 -33 callgsubr
          183 114 hintmask 10011100
          83 hmoveto
          116 hlineto
          hintmask 01101100
          102 80 vlineto
          119 98 52 121 126 -96 39 -121 hvcurveto
          -80 hlineto
          hintmask 10011100
          83 -116 vlineto
          116 -336 rmoveto
          168 73 vlineto
          72 38 -19 -61 -59 -35 -29 -75 hvcurveto
          endchar
        </CharString>
        <CharString name="U">
          88 35 callsubr
          hstem
          80 116 268 111 vstem
          -103 callgsubr
          endchar
        </CharString>
        <CharString name="U.sc">
          33 callsubr
          -94 callgsubr
          endchar
        </CharString>
        <CharString name="U.sups">
          -127 256 72 hstem
          52 83 173 80 vstem
          52 457 rmoveto
          -143 61 -58 109 104 62 58 143 vhcurveto
          239 -80 -246 vlineto
          -92 -35 -30 -51 -53 -34 30 92 vhcurveto
          246 -83 vlineto
          endchar
        </CharString>
        <CharString name="Uacute">
          88 35 callsubr
          70 116 hstem
          80 116 268 111 vstem
          -103 callgsubr
          394 166 23 callgsubr
        </CharString>
        <CharString name="Uacute.sc">
          33 callsubr
          88 116 -94 callgsubr
          364 184 23 callgsubr
        </CharString>
        <CharString name="Ubreve">
          88 35 callsubr
          71 61 hstem
          80 116 268 111 vstem
          -103 callgsubr
          248 51 rmoveto
          83 39 51 64 8 hvcurveto
          -66 hlineto
          57 callgsubr
          endchar
        </CharString>
        <CharString name="Ubreve.sc">
          33 callsubr
          89 61 -94 callgsubr
          218 69 rmoveto
          83 39 52 63 8 hvcurveto
          -66 hlineto
          99 callgsubr
          -63 7 39 -52 84 hhcurveto
          endchar
        </CharString>
        <CharString name="Ucircumflex">
          88 35 callsubr
          70 116 hstem
          80 116 268 111 vstem
          -103 callgsubr
          186 50 116 callgsubr
          endchar
        </CharString>
        <CharString name="Ucircumflex.sc">
          33 callsubr
          88 116 -94 callgsubr
          156 68 116 callsubr
          endchar
        </CharString>
        <CharString name="Udieresis">
          88 35 callsubr
          74 119 163 callsubr
          -21 119 67 119 -16 111 hintmask 11110010
          -103 callgsubr
          hintmask 11101100
          155 54 rmoveto
          35 24 25 34 35 -24 25 -35 -55 callsubr
          185 hmoveto
          -46 callgsubr
          endchar
        </CharString>
        <CharString name="Udieresis.sc">
          33 callsubr
          92 119 163 callgsubr
          -50 119 67 119 -45 110 hintmask 11110010
          -102 callgsubr
          hintmask 11101100
          125 72 rmoveto
          35 24 25 34 35 -24 25 -35 -55 callsubr
          185 hmoveto
          -46 callgsubr
          endchar
        </CharString>
        <CharString name="Ugrave">
          88 35 callsubr
          70 116 hstem
          80 116 268 111 vstem
          -103 callgsubr
          217 50 62 callsubr
        </CharString>
        <CharString name="Ugrave.sc">
          33 callsubr
          88 116 -94 callgsubr
          187 68 62 callsubr
        </CharString>
        <CharString name="Uhorn">
          104 35 callsubr
          163 callsubr
          268 111 26 91 vstemhm
          586 762 -60 callsubr
          hintmask 11110000
          -80 callgsubr
          hintmask 11111000
          65 13 52 33 71 7 callsubr
        </CharString>
        <CharString name="Uhorn.sc">
          44 -12 96 439 -20 163 callgsubr
          210 110 26 91 vstemhm
          526 631 -60 callsubr
          hintmask 11110000
          -78 callgsubr
          hintmask 11111000
          65 13 52 33 71 -42 callsubr
        </CharString>
        <CharString name="Uhungarumlaut">
          88 35 callsubr
          70 116 hstem
          80 116 268 111 vstem
          -103 callgsubr
          204 50 103 callsubr
        </CharString>
        <CharString name="Uhungarumlaut.sc">
          33 callsubr
          88 116 -94 callgsubr
          174 68 103 callsubr
        </CharString>
        <CharString name="Umacron">
          88 35 callsubr
          90 76 163 callsubr
          -1 265 4 111 hintmask 11110100
          -103 callgsubr
          hintmask 11101000
          115 70 113 callsubr
          endchar
        </CharString>
        <CharString name="Umacron.sc">
          33 callsubr
          108 76 -94 callgsubr
          85 88 113 callsubr
          endchar
        </CharString>
        <CharString name="Uogonek">
          88 -218 78 129 100 565 -20 hstem
          80 116 52 87 129 111 vstem
          80 287 rmoveto
          -204 87 -87 145 -7 vhcurveto
          -21 -20 -43 -37 -59 vvcurveto
          -59 47 -32 59 30 40 73 callsubr
          30 24 38 51 24 hvcurveto
          107 50 58 62 181 vvcurveto
          367 -111 -376 vlineto
          -142 -56 -47 -80 -79 -53 47 142 vhcurveto
          376 -116 vlineto
          endchar
        </CharString>
        <CharString name="Uogonek.sc">
          28 -218 78 129 95 439 -20 163 callgsubr
          25 86 99 110 hintmask 11110100
          515 523 rmoveto
          146 callsubr
          hlineto
          -107 -40 -35 -65 -65 -40 35 107 vhcurveto
          297 -115 -293 vlineto
          -168 77 -66 127 -7 vhcurveto
          hintmask 11111100
          -22 -20 -42 -37 -59 vvcurveto
          -59 46 -32 59 31 39 73 callsubr
          30 24 38 51 24 hvcurveto
          86 39 48 53 144 vvcurveto
          endchar
        </CharString>
        <CharString name="Uring">
          88 35 callsubr
          64 46 94 46 163 callsubr
          28 59 88 60 33 111 hintmask 11111011
          -103 callgsubr
          hintmask 11111111
          248 44 rmoveto
          60 43 36 57 56 -43 37 -60 -61 -43 -37 -56 -57 43 -36 110 callgsubr
        </CharString>
        <CharString name="Uring.sc">
          33 callsubr
          82 46 94 46 163 callgsubr
          -1 59 88 60 4 110 hintmask 11111001
          -102 callgsubr
          hintmask 11110110
          218 62 rmoveto
          60 43 37 56 56 -43 37 -60 -61 -43 -37 -56 -56 43 -37 110 callgsubr
        </CharString>
        <CharString name="Utilde">
          88 35 callsubr
          73 74 -25 73 163 callsubr
          229 60 -21 111 hintmask 11011010
          -103 callgsubr
          hintmask 11101100
          309 53 rmoveto
          hintmask 11011100
          -26 callgsubr
          -60 hlineto
          hintmask 11101100
          -33 -7 -14 -15 -19 hhcurveto
          hintmask 11011010
          -33 -33 206 callsubr
          60 hlineto
          hintmask 11011010
          33 7 15 16 18 hhcurveto
          hintmask 11101100
          34 32 -49 53 hhcurveto
          endchar
        </CharString>
        <CharString name="Utilde.sc">
          33 callsubr
          91 74 -25 73 163 callgsubr
          -55 60 205 110 hintmask 11011010
          -102 callgsubr
          hintmask 11101010
          279 71 rmoveto
          hintmask 11011010
          -26 callgsubr
          -60 hlineto
          40 callsubr
          endchar
        </CharString>
        <CharString name="V">
          -31 0 112 -91 162 callsubr
          hstemhm
          -4 544 hintmask 01110000
          200 hmoveto
          137 hlineto
          203 654 205 callsubr
          -91 -329 rlineto
          hintmask 10110000
          -20 -74 -15 -64 -22 -75 rrcurveto
          -4 hlineto
          -22 75 -15 64 -21 74 -92 329 rcurveline
          -123 hlineto
          endchar
        </CharString>
        <CharString name="V.sc">
          -98 0 106 417 -20 hstem
          -4 477 vstem
          166 hmoveto
          137 hlineto
          170 523 rlineto
          -116 hlineto
          -71 -248 -16 -59 -12 -51 -18 -59 rlinecurve
          -4 hlineto
          -17 59 -14 51 -16 59 -72 248 rcurveline
          -121 hlineto
          endchar
        </CharString>
        <CharString name="V.sups">
          -205 264 80 hstem
          -4 370 vstem
          132 264 rmoveto
          100 hlineto
          134 432 rlineto
          -85 hlineto
          -59 -212 -13 -48 -10 -42 -14 -50 rlinecurve
          -2 hlineto
          -15 50 -10 42 -13 48 -60 212 rcurveline
          -89 hlineto
          endchar
        </CharString>
        <CharString name="W">
          65 callsubr
          hstemhm
          18 763 hintmask 10110000
          76 callsubr
          hintmask 11010000
          -94 callsubr
          endchar
        </CharString>
        <CharString name="W.sc">
          77 callgsubr
          hstemhm
          18 664 hintmask 10110000
          75 callgsubr
          hintmask 11010000
          -92 callsubr
          endchar
        </CharString>
        <CharString name="W.sups">
          -29 264 81 237 114 hstem
          10 517 vstem
          97 264 rmoveto
          102 hlineto
          49 219 8 33 5 33 7 33 rlinecurve
          2 hlineto
          6 -33 6 -33 7 -33 52 -219 rcurveline
          104 hlineto
          82 432 rlineto
          -80 hlineto
          -36 -213 -7 -45 -6 -46 -7 -47 rlinecurve
          -2 hlineto
          -10 47 -9 47 -10 44 -53 213 rcurveline
          -72 hlineto
          -51 -213 -11 -45 -7 -46 -10 -47 rlinecurve
          -3 hlineto
          -7 47 -6 45 -8 46 -35 213 rcurveline
          -87 hlineto
          endchar
        </CharString>
        <CharString name="Wacute">
          65 callsubr
          70 116 hstemhm
          18 763 hintmask 10111000
          76 callsubr
          hintmask 11011000
          -94 callsubr
          529 166 -74 callsubr
          93 hlineto
          endchar
        </CharString>
        <CharString name="Wacute.sc">
          77 callgsubr
          88 116 hstemhm
          18 664 hintmask 10111000
          75 callgsubr
          hintmask 11011000
          -92 callsubr
          480 184 -74 callsubr
          93 hlineto
          endchar
        </CharString>
        <CharString name="Wcircumflex">
          65 callsubr
          70 116 hstemhm
          18 763 hintmask 10111000
          76 callsubr
          hintmask 11011000
          -94 callsubr
          320 50 116 callgsubr
          endchar
        </CharString>
        <CharString name="Wcircumflex.sc">
          77 callgsubr
          88 116 hstemhm
          18 664 hintmask 10111000
          75 callgsubr
          hintmask 11011000
          -92 callsubr
          271 68 116 callsubr
          endchar
        </CharString>
        <CharString name="Wdieresis">
          65 callsubr
          74 119 hstemhm
          248 119 66 119 hintmask 10111100
          76 callsubr
          hintmask 11011100
          -94 callsubr
          289 54 -52 callgsubr
        </CharString>
        <CharString name="Wdieresis.sc">
          77 callgsubr
          92 119 hstemhm
          198 120 66 119 hintmask 10111100
          75 callgsubr
          hintmask 11011100
          -92 callsubr
          240 72 rmoveto
          -20 callgsubr
          -55 callsubr
          186 hmoveto
          34 18 callsubr
          -34 -55 callsubr
          endchar
        </CharString>
        <CharString name="Wgrave">
          65 callsubr
          70 116 hstemhm
          18 763 hintmask 10111000
          76 callsubr
          hintmask 11011000
          -94 callsubr
          352 50 4 callsubr
        </CharString>
        <CharString name="Wgrave.sc">
          77 callgsubr
          88 116 hstemhm
          18 664 hintmask 10111000
          75 callgsubr
          hintmask 11011000
          -92 callsubr
          302 68 rmoveto
          94 24 callgsubr
        </CharString>
        <CharString name="X">
          -26 52 callsubr
          hstem
          13 515 vstem
          13 hmoveto
          123 hlineto
          78 154 16 34 15 33 17 40 rlinecurve
          4 hlineto
          20 -40 16 -33 17 -34 80 -154 rcurveline
          129 hlineto
          -186 332 174 322 rlineto
          -123 hlineto
          -69 -145 -15 -30 -13 -31 -16 -39 rlinecurve
          -4 hlineto
          -20 39 -14 31 -16 30 -72 145 rcurveline
          -129 hlineto
          174 -317 rlineto
          endchar
        </CharString>
        <CharString name="X.sc">
          -86 52 callgsubr
          hstem
          13 455 vstem
          13 hmoveto
          123 hlineto
          58 109 12 28 13 27 14 32 rlinecurve
          4 hlineto
          15 -32 14 -27 14 -28 61 -109 rcurveline
          127 hlineto
          -157 264 147 259 rlineto
          -122 hlineto
          -51 -102 -10 -24 -13 -26 -13 -33 rlinecurve
          -4 hlineto
          -16 33 -13 26 -12 24 -54 102 rcurveline
          -127 hlineto
          146 -254 rlineto
          endchar
        </CharString>
        <CharString name="X.sups">
          -201 264 432 hstem
          8 350 vstem
          8 264 rmoveto
          89 hlineto
          48 99 11 22 11 21 12 27 rlinecurve
          2 hlineto
          13 -27 11 -21 11 -22 50 -99 rcurveline
          92 hlineto
          -123 219 116 213 rlineto
          -89 hlineto
          -43 -91 -9 -20 -9 -20 -11 -27 rlinecurve
          -3 hlineto
          -13 27 -11 20 -9 20 -45 91 rcurveline
          -93 hlineto
          116 -209 rlineto
          endchar
        </CharString>
        <CharString name="Y">
          176 callsubr
          hstem
          192 116 vstem
          -96 callgsubr
          endchar
        </CharString>
        <CharString name="Y.sc">
          217 callsubr
          hstem
          163 116 vstem
          -96 callsubr
          endchar
        </CharString>
        <CharString name="Y.sups">
          -229 264 432 hstem
          128 84 vstem
          128 264 rmoveto
          84 159 hlineto
          131 273 rlineto
          -87 hlineto
          -45 -106 -13 -33 -13 -30 -13 -33 rlinecurve
          -2 hlineto
          -14 33 -12 30 -14 33 -45 106 rcurveline
          -90 hlineto
          133 -273 rlineto
          endchar
        </CharString>
        <CharString name="Yacute">
          176 callsubr
          70 116 hstem
          192 116 vstem
          -96 callgsubr
          205 577 23 callgsubr
        </CharString>
        <CharString name="Yacute.sc">
          217 callsubr
          88 116 hstem
          163 116 vstem
          -96 callsubr
          203 519 23 callgsubr
        </CharString>
        <CharString name="Ycircumflex">
          176 callsubr
          70 116 hstem
          192 116 vstem
          -96 callgsubr
          -4 461 116 callgsubr
          endchar
        </CharString>
        <CharString name="Ycircumflex.sc">
          217 callsubr
          88 116 hstem
          163 116 vstem
          -96 callsubr
          -5 403 116 callsubr
          endchar
        </CharString>
        <CharString name="Ydieresis">
          176 callsubr
          74 119 hstemhm
          98 119 -25 116 -24 119 hintmask 11101000
          -96 callgsubr
          hintmask 11110100
          -34 465 44 callsubr
        </CharString>
        <CharString name="Ydieresis.sc">
          217 callsubr
          92 119 hstemhm
          67 119 -23 116 -26 119 hintmask 11101000
          -96 callsubr
          hintmask 11110100
          -36 407 rmoveto
          35 24 25 34 35 -24 25 -35 -55 callsubr
          185 hmoveto
          -46 callgsubr
          endchar
        </CharString>
        <CharString name="Ygrave">
          176 callsubr
          70 116 hstem
          192 116 vstem
          -96 callgsubr
          28 461 62 callsubr
        </CharString>
        <CharString name="Ygrave.sc">
          217 callsubr
          88 116 hstem
          163 116 vstem
          -96 callsubr
          26 403 62 callsubr
        </CharString>
        <CharString name="Z">
          -27 95 callsubr
          hstem
          40 462 -36 callgsubr
          endchar
        </CharString>
        <CharString name="Z.sc">
          -89 0 95 333 95 hstem
          40 400 -36 callsubr
          endchar
        </CharString>
        <CharString name="Z.sups">
          -206 264 69 294 69 hstem
          25 312 vstem
          25 264 rmoveto
          312 69 -209 hlineto
          207 313 rlineto
          50 -291 -69 188 vlineto
          -207 -313 rlineto
          endchar
        </CharString>
        <CharString name="Zacute">
          -27 95 callsubr
          50 116 hstem
          40 462 -36 callgsubr
          389 750 -74 callsubr
          93 hlineto
          endchar
        </CharString>
        <CharString name="Zacute.sc">
          -89 0 95 333 95 68 116 hstem
          40 400 -36 callsubr
          360 639 -74 callsubr
          94 hlineto
          endchar
        </CharString>
        <CharString name="Zcaron">
          -27 95 callsubr
          50 116 hstem
          40 462 -36 callgsubr
          304 750 -101 callsubr
        </CharString>
        <CharString name="Zcaron.sc">
          -89 0 95 333 95 68 116 hstem
          40 400 -36 callsubr
          275 639 -101 callsubr
        </CharString>
        <CharString name="Zdotaccent">
          -27 95 callsubr
          53 131 hstem
          211 142 -36 callgsubr
          242 637 rmoveto
          -37 callgsubr
        </CharString>
        <CharString name="Zdotaccent.sc">
          -89 0 95 333 95 71 132 hstem
          182 142 -36 callsubr
          213 526 -30 callgsubr
        </CharString>
        <CharString name="a">
          -27 callgsubr
          33 callgsubr
          hintmask 01111000
          107 callsubr
          hintmask 10111000
          -84 callsubr
          hintmask 01111000
          -104 callsubr
          hintmask 10111000
          -100 callsubr
          endchar
        </CharString>
        <CharString name="a.a">
          -75 callgsubr
          -10 callsubr
          hintmask 10101100
          -107 callsubr
          hintmask 01011100
          -65 callgsubr
          hintmask 10101100
          -97 callsubr
          endchar
        </CharString>
        <CharString name="a.supa">
          -29 callgsubr
        </CharString>
        <CharString name="a.sups">
          -35 callsubr
        </CharString>
        <CharString name="aacute">
          170 callsubr
          146 33 callgsubr
          hintmask 01111100
          107 callsubr
          hintmask 10111100
          -84 callsubr
          hintmask 01111100
          -104 callsubr
          hintmask 10111100
          -100 callsubr
          241 578 4 callgsubr
        </CharString>
        <CharString name="aacute.a">
          -75 callgsubr
          102 146 -10 callsubr
          hintmask 10101110
          -107 callsubr
          hintmask 01011110
          -65 callgsubr
          hintmask 10101110
          -97 callsubr
          379 474 22 callsubr
        </CharString>
        <CharString name="abreve">
          -27 callgsubr
          72 65 -65 133 98 callsubr
          -22 224 callsubr
          -67 115 hintmask 0110110010000000
          107 callsubr
          hintmask 1010110010000000
          -84 callsubr
          hintmask 0110110010000000
          -104 callsubr
          hintmask 1010110010000000
          -100 callsubr
          hintmask 0110101100000000
          111 434 71 callgsubr
          hintmask 0111010100000000
          95 callgsubr
          hintmask 0110101010000000
          55 callgsubr
          hintmask 0110101100000000
          105 callsubr
        </CharString>
        <CharString name="abreve.a">
          -75 callgsubr
          104 65 -65 133 98 callgsubr
          -4 224 callsubr
          -48 115 hintmask 1010011001000000
          -107 callsubr
          hintmask 0101011001000000
          -65 callgsubr
          hintmask 1010011001000000
          -97 callsubr
          hintmask 1010010110000000
          248 330 71 callgsubr
          hintmask 1010101010000000
          95 callgsubr
          hintmask 1010010101000000
          55 callgsubr
          hintmask 1010010110000000
          165 callsubr
        </CharString>
        <CharString name="acircumflex">
          170 callsubr
          146 33 callgsubr
          hintmask 01111100
          107 callsubr
          hintmask 10111100
          -84 callsubr
          hintmask 01111100
          -104 callsubr
          hintmask 10111100
          -100 callsubr
          -31 432 -4 callgsubr
          endchar
        </CharString>
        <CharString name="acircumflex.a">
          -75 callgsubr
          102 146 -10 callsubr
          hintmask 10101110
          -107 callsubr
          hintmask 01011110
          -65 callgsubr
          hintmask 10101110
          -97 callsubr
          107 123 callsubr
          endchar
        </CharString>
        <CharString name="acute">
          -18 132 callgsubr
          201 204 vstem
          181 callgsubr
          endchar
        </CharString>
        <CharString name="adieresis">
          -27 callgsubr
          76 119 98 callsubr
          -41 119 66 119 -86 115 hintmask 01111001
          107 callsubr
          hintmask 10111001
          -84 callsubr
          hintmask 01111001
          -104 callsubr
          hintmask 10111001
          -100 callsubr
          hintmask 01110110
          18 438 44 callgsubr
        </CharString>
        <CharString name="adieresis.a">
          -75 callgsubr
          108 119 98 callgsubr
          -23 119 66 120 -68 115 hintmask 1010110010000000
          -107 callsubr
          hintmask 0101110010000000
          -65 callgsubr
          hintmask 1010110010000000
          -97 callsubr
          hintmask 1010101100000000
          155 334 -17 callsubr
        </CharString>
        <CharString name="ae">
          218 -12 92 134 73 123 93 -89 89 98 callsubr
          174 105 206 99 hintmask 11011110
          164 141 rmoveto
          50 47 34 125 17 vhcurveto
          2 -23 1 -29 5 -31 10 -23 rlinecurve
          -36 -36 -45 -22 -39 hhcurveto
          -41 -29 19 44 hvcurveto
          hintmask 11101110
          -50 221 rmoveto
          26 43 46 22 47 hhcurveto
          67 19 -44 -52 2 hvcurveto
          -199 -21 -87 -56 -105 vvcurveto
          -86 60 -58 86 64 62 26 58 68 vhcurveto
          -47 39 55 -37 77 hhcurveto
          62 58 22 31 47 hvcurveto
          -41 77 rlineto
          -23 -36 -33 -15 -42 hhcurveto
          -71 -56 49 85 -8 hvcurveto
          300 134 callgsubr
          20 22 vvcurveto
          hintmask 11011110
          137 -66 98 -125 -63 -50 -33 -56 -40 vhcurveto
          55 -25 -47 34 -67 hhcurveto
          -72 -67 -30 -34 -54 hvcurveto
          371 -152 rmoveto
          81 9 45 46 56 hhcurveto
          64 32 -48 -79 hvcurveto
          endchar
        </CharString>
        <CharString name="agrave">
          170 callsubr
          146 33 callgsubr
          hintmask 01111100
          107 callsubr
          hintmask 10111100
          -84 callsubr
          hintmask 01111100
          -104 callsubr
          hintmask 10111100
          -100 callsubr
          99 432 5 callgsubr
        </CharString>
        <CharString name="agrave.a">
          -75 callgsubr
          102 146 -10 callsubr
          hintmask 10101110
          -107 callsubr
          hintmask 01011110
          -65 callgsubr
          hintmask 10101110
          -97 callsubr
          236 328 5 callgsubr
        </CharString>
        <CharString name="amacron">
          -27 callgsubr
          93 76 98 callsubr
          -19 260 -64 115 hintmask 01111010
          107 callsubr
          hintmask 10111010
          -84 callsubr
          hintmask 01111010
          -104 callsubr
          hintmask 10111010
          -100 callsubr
          hintmask 01110100
          -19 455 182 callgsubr
        </CharString>
        <CharString name="amacron.a">
          -75 callgsubr
          125 76 98 callgsubr
          -1 261 -46 115 hintmask 10101101
          -107 callsubr
          hintmask 01011101
          -65 callgsubr
          hintmask 10101101
          -97 callsubr
          hintmask 10101010
          118 351 15 callsubr
          endchar
        </CharString>
        <CharString name="ampersand">
          72 -12 89 511 78 hstemhm
          28 110 -27 96 123 90 hintmask 11101000
          138 179 rmoveto
          40 26 32 37 30 vhcurveto
          42 -59 55 -57 58 -49 rrcurveto
          -24 -33 -36 -15 -36 hhcurveto
          -65 -48 41 61 hvcurveto
          hintmask 11011000
          69 325 rmoveto
          50 29 34 41 38 15 -27 -35 -51 -43 -33 -54 -34 vhcurveto
          -16 34 -10 32 30 vvcurveto
          415 -422 rmoveto
          -35 7 -40 19 -43 26 51 68 37 77 24 82 rrcurveto
          -106 hlineto
          -18 -68 -29 -58 -36 -48 -56 43 -53 53 -40 54 rrcurveto
          71 50 71 54 86 vvcurveto
          83 -55 56 -89 -100 -65 -73 -90 -45 15 -49 27 -50 vhcurveto
          hintmask 11101000
          -66 -44 -59 -53 -90 vvcurveto
          -103 79 -81 130 80 65 27 43 52 vhcurveto
          54 -35 55 -23 50 -12 rrcurveto
          endchar
        </CharString>
        <CharString name="ampersand.sc">
          -1 -12 84 388 75 hstemhm
          28 104 -35 90 102 84 hintmask 11101000
          132 146 rmoveto
          29 19 23 27 22 vhcurveto
          35 -43 44 -42 47 -37 rrcurveto
          -16 -26 -28 -10 -28 hhcurveto
          -51 -39 28 46 hvcurveto
          hintmask 11011000
          55 252 rmoveto
          36 25 26 32 31 14 -20 -26 -39 -35 -25 -44 -24 vhcurveto
          -14 25 -9 24 23 vvcurveto
          362 -319 rmoveto
          -30 6 -33 12 -36 19 43 54 32 59 20 64 rrcurveto
          -104 hlineto
          -14 -50 -23 -45 -29 -36 -45 31 -44 37 -34 39 rrcurveto
          60 38 61 41 67 vvcurveto
          71 -49 49 -81 -89 -57 -64 -73 -35 14 -39 23 -40 vhcurveto
          hintmask 11101000
          -56 -33 -50 -41 -71 vvcurveto
          -81 66 -70 116 70 56 22 36 46 vhcurveto
          47 -29 48 -20 44 -9 rrcurveto
          endchar
        </CharString>
        <CharString name="aogonek">
          -44 -208 71 125 -33 callsubr
          98 callsubr
          125 80 -28 115 hintmask 11011010
          164 141 rmoveto
          49 44 35 133 17 vhcurveto
          -110 vlineto
          -34 -36 -31 -20 -40 hhcurveto
          -41 -29 19 44 hvcurveto
          -112 -9 rmoveto
          -86 60 -58 86 vhcurveto
          hintmask 11011100
          58 50 29 37 44 hvcurveto
          3 hlineto
          10 -53 rlineto
          -32 -21 -42 -44 -56 vvcurveto
          -58 43 -30 55 29 39 12 18 22 vhcurveto
          -26 54 rlineto
          -8 -10 -13 220 callsubr
          hvcurveto
          hintmask 10111010
          35 27 40 60 20 vhcurveto
          291 vlineto
          137 -60 75 -123 -78 -69 -30 -34 -54 vhcurveto
          42 -77 rlineto
          26 43 46 22 49 hhcurveto
          66 22 -44 -52 1 hvcurveto
          hintmask 11011010
          -201 -22 -88 -55 -105 vvcurveto
          endchar
        </CharString>
        <CharString name="aogonek.a">
          -3 -208 71 125 -62 callsubr
          98 callgsubr
          161 81 -28 115 hintmask 11010101
          162 246 rmoveto
          103 51 59 63 33 33 -11 -30 34 vhcurveto
          -229 vlineto
          -38 -33 -32 -17 -38 hhcurveto
          -71 -40 57 106 hvcurveto
          -119 -1 rmoveto
          -162 79 -95 123 vhcurveto
          hintmask 11010110
          -24 callgsubr
          hvcurveto
          4 hlineto
          10 -52 rlineto
          -35 -25 -40 -40 -56 vvcurveto
          -58 44 -30 55 28 39 12 18 23 vhcurveto
          -26 54 rlineto
          -8 -11 -13 -5 -14 hhcurveto
          -23 -21 14 28 hvcurveto
          hintmask 10101101
          35 24 36 63 24 vhcurveto
          491 -92 vlineto
          hintmask 11010101
          -97 callsubr
          endchar
        </CharString>
        <CharString name="approxequal">
          -54 136 84 -4 84 60 84 -4 84 hstemhm
          32 448 hintmask 01011000
          94 381 217 callgsubr
          hintmask 01101000
          58 callgsubr
          hintmask 01011000
          138 callsubr
          62 -270 217 callgsubr
          hintmask 10011000
          58 callgsubr
          hintmask 01011000
          138 callsubr
          endchar
        </CharString>
        <CharString name="aring">
          -27 callgsubr
          42 46 103 46 98 callsubr
          8 59 88 59 -37 115 hintmask 1011111010000000
          107 callsubr
          -84 callsubr
          hintmask 0111101010000000
          9 -54 rlineto
          94 291 hlineto
          137 -60 75 -123 -78 -69 -30 -34 -54 vhcurveto
          42 -77 rlineto
          26 43 46 22 49 hhcurveto
          66 22 -44 -52 1 hvcurveto
          hintmask 1011111010000000
          -201 -22 -88 -55 -105 vvcurveto
          -100 callsubr
          hintmask 0111101100000000
          111 404 rmoveto
          54 callgsubr
        </CharString>
        <CharString name="aring.a">
          -75 callgsubr
          74 46 103 46 98 callgsubr
          26 59 89 58 -18 115 hintmask 1010111001000000
          -107 callsubr
          hintmask 0101111001000000
          -65 callgsubr
          hintmask 1010111001000000
          -97 callsubr
          hintmask 1010111110000000
          248 300 rmoveto
          61 42 39 58 59 -42 39 -61 -61 -42 -39 -59 -58 42 -39 61 118 callsubr
        </CharString>
        <CharString name="arrowdown">
          51 -25 553 hstem
          262 93 vstem
          311 -25 rmoveto
          266 275 -63 56 -159 -175 rlineto
          397 -93 -397 vlineto
          -158 175 -64 -56 267 -275 rlineto
          endchar
        </CharString>
        <CharString name="arrowup">
          51 -25 553 hstem
          262 93 vstem
          307 528 rmoveto
          -267 -275 64 -56 158 175 rlineto
          -397 93 397 vlineto
          159 -175 63 56 -266 275 rlineto
          endchar
        </CharString>
        <CharString name="asciicircum">
          -54 565 105 hstem
          55 403 vstem
          55 279 rmoveto
          97 hlineto
          55 151 47 135 -15 callsubr
          48 -135 55 -151 rlineto
          97 hlineto
          -154 391 rlineto
          -96 hlineto
          endchar
        </CharString>
        <CharString name="asciitilde">
          -54 248 84 -4 84 hstemhm
          32 448 hintmask 01100000
          94 269 217 callgsubr
          hintmask 10100000
          58 callgsubr
          hintmask 01100000
          138 callsubr
          endchar
        </CharString>
        <CharString name="asterisk">
          -129 384 328 hstem
          181.5 74 vstem
          143 384 rmoveto
          76 87 75 -87 51 37 -58 98 103 45 -19 60 -110 -25 -11 113 rlineto
          -63 hlineto
          -11 -113 -109 25 -19 -60 102 -45 -58 -98 rlineto
          endchar
        </CharString>
        <CharString name="at">
          308 -164 73 135 73 -65 75 234 76 149 72 hstemhm
          50 80 123 89 408 76 hintmask 11011111
          50 204 rmoveto
          -244 168 -124 198 70 63 16 34 60 vhcurveto
          -27 64 rlineto
          -24 -44 -57 -17 -56 hhcurveto
          -163 -132 102 197 229 170 149 175 189 86 -124 -152 -119 -65 -74 -62 -49 -18 33 68 17 hvcurveto
          43 211 rlineto
          -73 hlineto
          -13 -41 rlineto
          -2 hlineto
          34 -18 -26 15 -34 hhcurveto
          -116 -81 -125 -114 hvcurveto
          hintmask 10111111
          -91 53 -55 73 43 48 28 40 30 vhcurveto
          2 hlineto
          hintmask 11011111
          -50 9 44 -26 57 hhcurveto
          98 116 91 179 203 -133 141 -209 -235 -199 -180 -274 hvcurveto
          hintmask 10111111
          292 1 rmoveto
          67 42 89 69 23 17 -11 -24 15 vhcurveto
          -26 -147 rlineto
          -37 -30 -25 -15 -24 hhcurveto
          -37 -24 24 54 hvcurveto
          endchar
        </CharString>
        <CharString name="at.case">
          239 -29 69 103 73 -64 74 208 73 119 69 hstemhm
          50 78 104 88 361 76 hintmask 11011111
          50 292 rmoveto
          -221 154 -100 170 61 52 11 28 53 vhcurveto
          -29 60 rlineto
          -20 -36 -48 -10 -44 hhcurveto
          -135 -120 75 180 201 150 130 158 169 76 -101 -132 -116 -59 -61 -50 -38 -13 31 66 15 hvcurveto
          43 186 rlineto
          -73 hlineto
          -14 -41 rlineto
          -2 hlineto
          34 -17 -26 15 -32 hhcurveto
          -109 -74 -113 -109 hvcurveto
          hintmask 10111111
          -79 48 -54 63 44 48 29 39 28 vhcurveto
          2 hlineto
          hintmask 11011111
          -47 8 35 -30 53 hhcurveto
          101 95 89 165 177 -123 121 -188 -216 -180 -159 -244 hvcurveto
          hintmask 10111111
          318 -66 rmoveto
          -28 -20 22 44 60 38 82 59 24 13 -10 -24 14 hvcurveto
          -25 -124 rlineto
          -35 -29 -23 -15 -23 hhcurveto
          endchar
        </CharString>
        <CharString name="atilde">
          -27 callgsubr
          74 194 callgsubr
          52 112 -42 61 158 115 -89 61 hintmask 0110110100000000
          107 callsubr
          hintmask 1010110100000000
          -84 callsubr
          hintmask 0110110100000000
          -104 callsubr
          hintmask 1010110100000000
          -100 callsubr
          hintmask 0110101100000000
          -42 436 rmoveto
          61 hlineto
          33 7 11 15 18 hhcurveto
          hintmask 0111010010000000
          32 32 -48 52 hhcurveto
          hintmask 0110110010000000
          51 34 82 callgsubr
          hintmask 0111010010000000
          -33 -7 -11 -15 -18 hhcurveto
          hintmask 0110101100000000
          45 callsubr
        </CharString>
        <CharString name="atilde.a">
          -75 callgsubr
          106 194 callgsubr
          43 119 -24 62 176 115 -108 61 hintmask 1010011010000000
          -107 callsubr
          hintmask 0101011010000000
          -65 callgsubr
          hintmask 1010011010000000
          -97 callsubr
          hintmask 1010010110000000
          95 332 rmoveto
          62 hlineto
          129 callsubr
          hintmask 1010101001000000
          178 callsubr
          hintmask 1010011001000000
          51 34 82 callgsubr
          hintmask 1010101001000000
          -33 -7 -10 -15 -19 hhcurveto
          hintmask 1010010110000000
          45 callsubr
        </CharString>
        <CharString name="b">
          -3 -12 -48 callgsubr
          203 195 callsubr
          214 119 hintmask 01111100
          73 hmoveto
          91 hlineto
          hintmask 10111100
          -3 callgsubr
          endchar
        </CharString>
        <CharString name="b.sups">
          -187 256 67 207 68 hstem
          47 83 135 85 193 callsubr
          64 hlineto
          7 34 -15 callsubr
          -28 26 33 -14 30 226 callsubr
          -34 -32 -18 -24 -27 hvcurveto
          3 54 rlineto
          120 -83 vlineto
          83 -382 97 callsubr
        </CharString>
        <CharString name="backslash">
          -223 -160 870 hstem
          21 312 vstem
          255 -160 rmoveto
          78 hlineto
          -234 870 rlineto
          -78 hlineto
          endchar
        </CharString>
        <CharString name="bar">
          -312 220 callgsubr
          vstem
          89 -250 rmoveto
          77 1000 -77 hlineto
          endchar
        </CharString>
        <CharString name="braceleft">
          195 callgsubr
          332 70 332 63 hstemhm
          32 108 -31 98 hintmask 11101000
          263 -89 rmoveto
          -48 -13 20 60 hvcurveto
          57 5 51 64 vvcurveto
          70 -20 31 -47 12 vhcurveto
          4 vlineto
          47 12 20 30 71 64 -5 51 57 vvcurveto
          60 13 20 48 vhcurveto
          23 63 -54 hlineto
          -84 -39 -32 -106 hvcurveto
          -72 9 -44 -66 vvcurveto
          hintmask 11110000
          -36 -19 -38 -67 -1 vhcurveto
          -70 vlineto
          hintmask 11101000
          67 -1 19 -38 -37 -65 -9 -44 -72 vvcurveto
          -106 39 -32 84 vhcurveto
          54 63 hlineto
          endchar
        </CharString>
        <CharString name="braceright">
          195 callgsubr
          332 70 332 63 hstemhm
          117 98 -31 108 hintmask 11110000
          38 -89 rmoveto
          -63 54 vlineto
          84 39 32 106 hvcurveto
          72 -9 44 65 vvcurveto
          hintmask 11101000
          37 19 38 67 1 vhcurveto
          70 vlineto
          hintmask 11110000
          -67 1 -19 38 36 66 9 44 72 vvcurveto
          106 -39 32 -84 vhcurveto
          -54 -63 23 hlineto
          48 13 -20 -60 hvcurveto
          -57 -5 -51 -64 vvcurveto
          -71 20 -30 47 -12 vhcurveto
          -4 vlineto
          -47 -12 -20 -31 -70 -64 5 -51 -57 vvcurveto
          -60 -13 -20 -48 vhcurveto
          endchar
        </CharString>
        <CharString name="bracketleft">
          195 callgsubr
          734 63 223 callsubr
          -152 rmoveto
          196 63 -109 734 109 63 -196 hlineto
          endchar
        </CharString>
        <CharString name="bracketright">
          195 callgsubr
          734 63 hstem
          147 87 vstem
          38 -89 rmoveto
          -63 196 860 -196 -63 109 -734 vlineto
          endchar
        </CharString>
        <CharString name="breve">
          -18 575 65 hstem
          142 66 132 67 vstem
          274 575 171 callsubr
          -36 -4 -21 -32 -41 hhcurveto
          -41 -20 32 36 -5 hvcurveto
          -66 hlineto
          199 callgsubr
        </CharString>
        <CharString name="brokenbar">
          -312 220 callgsubr
          vstem
          89 302 rmoveto
          77 448 -77 hlineto
          -541 vmoveto
          -459 77 459 vlineto
          endchar
        </CharString>
        <CharString name="bullet">
          -242 133 260 hstem
          40 245 vstem
          162 133 rmoveto
          68 55 54 76 75 -55 55 -68 -67 -55 -55 -75 -76 55 -54 67 hvcurveto
          endchar
        </CharString>
        <CharString name="c">
          -105 69 callgsubr
          hstem
          41 118 -85 callgsubr
          endchar
        </CharString>
        <CharString name="c.sups">
          -257 256 67 208 67 hstem
          27 85 vstem
          186 256 rmoveto
          51 35 19 19 23 hvcurveto
          -34 54 rlineto
          -14 -16 -19 -11 -31 hhcurveto
          -49 -34 42 62 61 36 43 48 23 16 -8 -14 17 hvcurveto
          38 54 rlineto
          17 -18 -34 18 -49 hhcurveto
          -86 -76 -64 -107 -109 67 -62 92 hvcurveto
          endchar
        </CharString>
        <CharString name="cacute">
          -105 40 callgsubr
          hstem
          41 118 -85 callgsubr
          374 474 4 callgsubr
        </CharString>
        <CharString name="caron">
          -18 132 callgsubr
          133 283 vstem
          228 573 rmoveto
          93 hlineto
          95 -50 callgsubr
          -79 hlineto
          endchar
        </CharString>
        <CharString name="ccaron">
          -105 40 callgsubr
          hstem
          41 118 -85 callgsubr
          197 328 13 callsubr
        </CharString>
        <CharString name="ccedilla">
          -105 -217 50 178 -21 419 94 hstem
          41 118 110 85 vstem
          312 -9 rmoveto
          45 7 45 20 37 33 -48 73 rcurveline
          -22 -27 -34 -20 -40 hhcurveto
          -77 -54 65 98 99 55 65 79 31 26 -13 -23 26 hvcurveto
          55 73 rlineto
          32 -33 -48 25 -63 hhcurveto
          -131 -115 -94 -164 -148 85 -91 116 -16 hvcurveto
          -34 -65 rlineto
          -77 callsubr
          -25 20 -34 12 vhcurveto
          endchar
        </CharString>
        <CharString name="ccircumflex">
          -105 40 callgsubr
          hstem
          41 118 -85 callgsubr
          102 328 -15 callgsubr
        </CharString>
        <CharString name="cdotaccent">
          -105 69 callgsubr
          74 131 hstem
          41 118 58 136 -85 callgsubr
          244 332 -100 callgsubr
        </CharString>
        <CharString name="cedilla">
          -18 -217 50 121 49 hstem
          270 85 vstem
          209 -75 rmoveto
          -77 callsubr
          -25 20 -34 12 vhcurveto
          23 49 rlineto
          -70 hlineto
          endchar
        </CharString>
        <CharString name="cent">
          -54 -37 691 -191 93 hstemhm
          61 112 96 66 hintmask 10110000
          269 162 rmoveto
          -61 18 -35 54 74 vvcurveto
          74 35 53 61 20 vhcurveto
          154 -259 rmoveto
          -24 -20 -30 -18 -34 -3 rrcurveto
          hintmask 01110000
          308 vlineto
          27 -3 24 -12 23 -20 54 71 rcurveline
          -30 30 -43 24 -55 3 rrcurveto
          98 -66 -101 vlineto
          -119 -19 -89 -86 -140 vvcurveto
          -143 83 -87 125 -16 vhcurveto
          -99 66 98 vlineto
          48 6 49 21 39 35 rrcurveto
          endchar
        </CharString>
        <CharString name="circumflex">
          -18 132 callgsubr
          133 283 vstem
          133 573 -67 callgsubr
          endchar
        </CharString>
        <CharString name="colon">
          -292 -12 156 186 190 callsubr
          408 rmoveto
          -74 callgsubr
          -342 vmoveto
          -74 callgsubr
          endchar
        </CharString>
        <CharString name="colon.sups">
          -374 432 112 104 113 callgsubr
          488 rmoveto
          5 callsubr
          216 vmoveto
          5 callsubr
          endchar
        </CharString>
        <CharString name="colonmonetary">
          -54 10 -21 31 -21 559 90 -6 -20 23 -20 hstemhm
          58 116 104 44 -41 43 hintmask 01100101
          305 556 rmoveto
          1 8 8 1 8 hhcurveto
          9 8 -1 -2 8 hvcurveto
          -56 -475 -18 3 -15 7 -14 10 rlinecurve
          -39 43 rmoveto
          -25 42 -13 60 75 vvcurveto
          109 29 78 56 33 vhcurveto
          173 -399 rmoveto
          -26 -35 -29 -21 -36 -6 54 456 rcurveline
          12 -9 11 -12 11 -13 65 63 rcurveline
          hintmask 01100110
          -24 31 -30 23 -34 15 14 113 rcurveline
          -43 hlineto
          hintmask 01001110
          -12 -101 rlineto
          hintmask 01100110
          2 -11 -11 1 -11 -5 -6 0 -5 hhcurveto
          12 98 rlineto
          -44 hlineto
          hintmask 01010110
          -12 -104 rlineto
          -130 -27 -84 -118 -181 vvcurveto
          -149 54 -103 85 -47 vhcurveto
          hintmask 01001101
          -15 -127 rlineto
          44 hlineto
          13 109 rlineto
          hintmask 10001101
          15 -5 16 -3 17 -2 -12 -99 rcurveline
          43 hlineto
          12 99 67 4 55 33 45 55 rlinecurve
          endchar
        </CharString>
        <CharString name="comma">
          -292 2 142 hstem
          148 80 vstem
          72 -182 rmoveto
          72 callsubr
        </CharString>
        <CharString name="comma.dnom">
          -374 0 200 callsubr
          -123 3 callgsubr
        </CharString>
        <CharString name="comma.numr">
          -374 264 200 callsubr
          141 3 callgsubr
        </CharString>
        <CharString name="comma.subs">
          -374 -231 200 callsubr
          -354 rmoveto
          69 22 41 52 68 vvcurveto
          55 -23 30 -40 -30 -26 -21 -32 -33 27 -18 28 vhcurveto
          2 1 0 2 hhcurveto
          -38 -26 -24 -44 -15 vhcurveto
          endchar
        </CharString>
        <CharString name="comma.sups">
          -374 440 200 callsubr
          317 3 callgsubr
        </CharString>
        <CharString name="copyright">
          180 -10 52 84 71 246 71 89 51 hstem
          47 58 91 86 360 58 vstem
          47 324 -6 callsubr
          91 -1 rmoveto
          -122 81 -75 107 55 41 23 31 37 vhcurveto
          -39 56 rlineto
          -22 -27 -26 -17 -38 hhcurveto
          -64 -41 49 77 69 41 51 68 31 22 -13 -24 25 hvcurveto
          45 50 rlineto
          32 -32 -38 26 -59 hhcurveto
          -99 -90 -74 -117 hvcurveto
          endchar
        </CharString>
        <CharString name="currency">
          -54 132 82 231 82 hstem
          50 104 204 104 vstem
          82 93 rmoveto
          69 70 rlineto
          -21 31 37 -10 37 hhcurveto
          37 38 10 21 31 hvcurveto
          69 -70 59 60 -63 63 rlineto
          22 31 13 38 44 vvcurveto
          45 -13 38 -22 31 vhcurveto
          63 63 -59 60 -69 -70 rlineto
          20 -31 -37 11 -38 hhcurveto
          -37 -38 -11 -20 -31 hvcurveto
          -68 70 -59 -60 62 -63 rlineto
          -22 -31 -13 -38 -45 vvcurveto
          -44 13 -38 22 -31 vhcurveto
          -62 -63 rlineto
          131 176 rmoveto
          70 46 46 56 57 45 -46 -70 -69 -45 -46 -57 -56 -46 46 69 vhcurveto
          endchar
        </CharString>
        <CharString name="d">
          -3 -12 -48 callgsubr
          203 -20 -10 callsubr
          hintmask 10111100
          30 callsubr
          hintmask 01111100
          16 callsubr
          hintmask 10111100
          -64 callsubr
          endchar
        </CharString>
        <CharString name="d.sups">
          -187 256 67 208 67 218 callsubr
          166 256 rmoveto
          36 29 18 23 24 hvcurveto
          3 hlineto
          7 -33 rlineto
          68 466 -83 -114 hlineto
          4 -54 rlineto
          22 -24 -27 14 -35 hhcurveto
          -69 -69 -64 -101 -113 52 -64 84 hvcurveto
          22 67 rmoveto
          -49 -24 36 74 61 33 37 38 21 21 -7 -20 22 hvcurveto
          -146 vlineto
          -24 -21 -19 -11 -22 hhcurveto
          endchar
        </CharString>
        <CharString name="dagger">
          -85 461 87.5 149 callsubr
          194 -80 rmoveto
          94 hlineto
          -6 544 152 -6 108 callsubr
          6 rlineto
          endchar
        </CharString>
        <CharString name="daggerdbl">
          -85 83.5 86 293 86 149 callsubr
          49 80 rmoveto
          152 7 -7 -167 rlineto
          94 hlineto
          -6 167 152 -7 rlineto
          94 vlineto
          -152 -9 6 151 -6 151 152 -9 108 callsubr
          9 -7 -151 7 -151 -152 9 rlineto
          endchar
        </CharString>
        <CharString name="dcaron">
          27 -12 -48 callgsubr
          45 158 -158 217 -10 callsubr
          47.5 74 hintmask 10110111
          30 callsubr
          hintmask 01110111
          16 callsubr
          hintmask 10110111
          -64 callsubr
          431 302 rmoveto
          hintmask 10101111
          19 141 callsubr
          hintmask 10110111
          5 233 callgsubr
        </CharString>
        <CharString name="dcroat">
          -3 -12 95 -62 -21 388 95 81 59 -59 142 -10 callsubr
          hintmask 10101110
          376 138 rmoveto
          -38 -33 -32 -17 -38 hhcurveto
          -71 -40 52 101 96 51 56 63 33 33 -11 -30 34 hvcurveto
          hintmask 10110110
          185 276 rmoveto
          -70 hlineto
          hintmask 10101110
          83 -115 vlineto
          hintmask 10110110
          -83 -156 vlineto
          hintmask 10101110
          -59 156 -56 vlineto
          4 -79 rlineto
          33 -38 -35 21 -56 hhcurveto
          -107 -101 -95 -153 -157 79 -90 123 54 48 26 36 36 hvcurveto
          3 hlineto
          hintmask 01101110
          8 -50 rlineto
          97 564 hlineto
          hintmask 10110110
          70 5 rlineto
          endchar
        </CharString>
        <CharString name="degree">
          -219 413 59 155 58 hstem
          40 64 142 64 vstem
          175 413 rmoveto
          74 61 55 81 81 -61 55 -74 -74 -61 -55 -81 -81 61 -55 74 hvcurveto
          59 vmoveto
          -42 -29 32 45 46 29 32 42 42 29 -32 -46 -45 -29 -32 -42 hvcurveto
          endchar
        </CharString>
        <CharString name="dieresis">
          -18 579 119 hstem
          122 119 67 119 vstem
          182 579 rmoveto
          34 51 callsubr
          -34 -34 callgsubr
          185 hmoveto
          36 callsubr
          endchar
        </CharString>
        <CharString name="divide">
          -54 84 131 73 84 72 131 hstem
          188 136 vstem
          256 444 rmoveto
          39 29 27 39 38 -29 27 -39 -38 -30 -32 callgsubr
          30 -27 38 hvcurveto
          -68 -294 rmoveto
          -39 30 -27 38 39 29 27 39 38 -29 27 -39 -38 -30 -27 -38 vhcurveto
          -154 138 rmoveto
          201 callsubr
          endchar
        </CharString>
        <CharString name="dollar">
          -54 -110 192 -92 92 -68 -21 561 192 -102 -20 22 -20 hstemhm
          70 111 37 80 44 111 hintmask 0010011110000000
          443 568 rmoveto
          -37 39 -44 31 -64 8 rrcurveto
          hintmask 0011001110000000
          100 -80 vlineto
          hintmask 0100101110000000
          -102 vlineto
          -90 -16 -58 -66 -93 -188 272 19 -132 vvcurveto
          -54 -32 -32 -65 -54 -47 25 37 -47 vhcurveto
          -52 -78 45 -42 67 -28 61 -6 rlinecurve
          hintmask 1000011110000000
          -100 80 vlineto
          hintmask 0011001110000000
          103 vlineto
          99 18 56 70 95 202 -272 -24 120 vvcurveto
          52 33 28 54 48 31 -19 -34 37 vhcurveto
          endchar
        </CharString>
        <CharString name="dong">
          -54 0 62 51 79 210 80 56 62 hstem
          66 100 163 96 vstem
          79 hmoveto
          379 62 -379 hlineto
          250 174 rmoveto
          -32 -27 -24 -12 -30 hhcurveto
          -52 -30 38 73 59 40 40 46 30 21 -10 -24 26 hvcurveto
          96 232 rmoveto
          58 -96 -58 -145 -62 145 -24 vlineto
          4 -75 rlineto
          27 -30 -26 16 -46 hhcurveto
          -83 -82 -68 -112 -122 63 -67 96 45 38 20 30 28 hvcurveto
          2 hlineto
          8 -40 rlineto
          79 415 hlineto
          76 6 rlineto
          56 vlineto
          endchar
        </CharString>
        <CharString name="dotaccent">
          -18 577 131 hstem
          206 136 vstem
          274 577 -93 callsubr
        </CharString>
        <CharString name="dotlessi">
          -305 21 -21 491 159 callsubr
          491 -115 hlineto
          endchar
        </CharString>
        <CharString name="e">
          -44 callsubr
          hstem
          41 111 218 100 vstem
          -107 callgsubr
          endchar
        </CharString>
        <CharString name="e.sups">
          -226 256 64 86 50 77 65 hstem
          26 79 141 71 vstem
          190 256 -57 callgsubr
        </CharString>
        <CharString name="eacute">
          -44 callsubr
          70 146 hstem
          41 111 218 100 vstem
          -107 callgsubr
          28 430 22 callsubr
        </CharString>
        <CharString name="eacute.sups">
          148 callsubr
          129 643 rmoveto
          63 hlineto
          79 97 rlineto
          -83 hlineto
          2 -480 -57 callgsubr
        </CharString>
        <CharString name="ebreve">
          -44 callsubr
          72 65 -65 133 196 callsubr
          -18 224 callsubr
          -30 100 hintmask 1110110010000000
          -107 callgsubr
          hintmask 1110101100000000
          -103 286 71 callgsubr
          hintmask 1111010100000000
          95 callgsubr
          hintmask 1110101010000000
          55 callgsubr
          hintmask 1110101100000000
          165 callsubr
        </CharString>
        <CharString name="ecaron">
          -44 callsubr
          70 146 hstem
          41 111 218 100 vstem
          -107 callgsubr
          -149 284 rmoveto
          93 hlineto
          95 -50 callgsubr
          -79 hlineto
          endchar
        </CharString>
        <CharString name="ecircumflex">
          -44 callsubr
          70 146 hstem
          41 111 218 100 vstem
          -107 callgsubr
          -244 284 -67 callgsubr
          endchar
        </CharString>
        <CharString name="edieresis">
          -44 callsubr
          76 119 196 callsubr
          -37 119 66 120 -50 100 hintmask 11101001
          -107 callgsubr
          hintmask 11110110
          -196 290 -17 callsubr
        </CharString>
        <CharString name="edotaccent">
          -44 callsubr
          74 131 hstem
          41 111 47 136 35 100 vstem
          -107 callgsubr
          -103 288 -93 callsubr
        </CharString>
        <CharString name="egrave">
          -44 callsubr
          70 146 hstem
          41 111 218 100 vstem
          -107 callgsubr
          -115 284 5 callgsubr
        </CharString>
        <CharString name="egrave.sups">
          148 callsubr
          168 643 rmoveto
          63 hlineto
          -59 97 rlineto
          -83 hlineto
          101 -480 -57 callgsubr
        </CharString>
        <CharString name="eight">
          -54 -12 82 496 82 hstemhm
          41 90 callsubr
          142 -95 callgsubr
        </CharString>
        <CharString name="eight.dnom">
          -195 -12 60 292 61 callgsubr
          106 rmoveto
          27 15 25 28 17 vhcurveto
          46 -20 40 -11 -39 vvcurveto
          -31 -29 -26 -36 -38 -26 27 -87 callsubr
        </CharString>
        <CharString name="eight.numr">
          -195 252 60 292 61 callgsubr
          370 rmoveto
          27 15 25 28 17 vhcurveto
          46 -20 40 -11 -39 vvcurveto
          -31 -29 -26 -36 -38 -26 27 -87 callsubr
        </CharString>
        <CharString name="eight.onum">
          -34 -12 82 496 82 hstemhm
          49 90 callsubr
          150 -95 callgsubr
        </CharString>
        <CharString name="eight.pnum">
          -30 -12 82 496 82 hstemhm
          53 90 callsubr
          154 -95 callgsubr
        </CharString>
        <CharString name="eight.sc">
          -67 -12 79 389 79 hstemhm
          50 102 -78 100 158 96 -80 104 hintmask 11100100
          152 146 rmoveto
          41 31 29 33 20 vhcurveto
          79 -27 53 -21 -50 vvcurveto
          -47 -39 -24 -54 -57 -46 31 48 vhcurveto
          hintmask 11011000
          134 153 rmoveto
          -64 21 -48 25 46 vvcurveto
          43 32 22 43 52 31 -29 -43 -29 -17 -31 -29 -25 vhcurveto
          hintmask 11100100
          -236 -169 rmoveto
          -83 85 -59 115 121 81 62 85 70 -47 39 -54 27 vhcurveto
          3 vlineto
          hintmask 11011000
          38 25 39 41 55 vvcurveto
          82 -68 58 -109 -100 -77 -55 -89 -54 35 -40 45 -29 vhcurveto
          -3 vlineto
          hintmask 11100100
          -54 -27 -50 -41 -67 vvcurveto
          endchar
        </CharString>
        <CharString name="eight.subs">
          -195 -243 59 293 61 callgsubr
          -125 rmoveto
          27 15 24 28 18 vhcurveto
          46 -20 40 -11 -39 vvcurveto
          -32 -29 -26 -36 -38 -26 28 -87 callsubr
        </CharString>
        <CharString name="eight.sups">
          -195 428 60 292 61 callgsubr
          546 rmoveto
          27 15 25 28 17 vhcurveto
          46 -20 40 -11 -39 vvcurveto
          -31 -29 -26 -36 -38 -26 27 -87 callsubr
        </CharString>
        <CharString name="eight.tnum">
          -54 -12 82 496 82 hstemhm
          41 90 callsubr
          142 -95 callgsubr
        </CharString>
        <CharString name="ellipsis">
          397 -12 156 hstem
          85 149 184 149 185 148 vstem
          85 66 rmoveto
          -74 callgsubr
          333 hmoveto
          -74 callgsubr
          334 hmoveto
          -45 32 -33 42 -18 callgsubr
          -32 -33 -45 vhcurveto
          endchar
        </CharString>
        <CharString name="emacron">
          -44 callsubr
          93 76 196 callsubr
          -15 261 -28 100 hintmask 11111010
          -107 callgsubr
          hintmask 11110100
          -233 307 15 callsubr
          endchar
        </CharString>
        <CharString name="emdash">
          119 callgsubr
        </CharString>
        <CharString name="emdash.sc">
          125 233 76 hstem
          42 608 vstem
          42 233 rmoveto
          608 76 -608 hlineto
          endchar
        </CharString>
        <CharString name="emdash.sups">
          -4 610 53 hstem
          42 479 vstem
          42 610 rmoveto
          479 53 -479 hlineto
          endchar
        </CharString>
        <CharString name="endash">
          -87 214 76 hstem
          42 396 vstem
          42 214 rmoveto
          396 76 -396 hlineto
          endchar
        </CharString>
        <CharString name="endash.sc">
          -151 233 76 hstem
          42 331 vstem
          42 233 rmoveto
          331 76 -331 hlineto
          endchar
        </CharString>
        <CharString name="endash.sups">
          -218 610 53 hstem
          42 265 vstem
          42 610 rmoveto
          265 53 -265 hlineto
          endchar
        </CharString>
        <CharString name="eogonek">
          -60 -208 71 125 89 139 73 125 89 196 callsubr
          111 79 28 100 hintmask 11111010
          -25 callgsubr
          -162 106 -95 136 vhcurveto
          hintmask 11111110
          12 11 1 4 15 hvcurveto
          -26 -23 -32 -41 -49 vvcurveto
          -58 42 153 callgsubr
          -26 54 rlineto
          -8 -11 -12 -5 -14 hhcurveto
          -25 -20 14 28 41 22 34 87 61 hvcurveto
          -39 72 rlineto
          -23 -36 -36 -13 -42 hhcurveto
          -79 -56 50 89 -10 hvcurveto
          hintmask 11111010
          312 134 callgsubr
          19 23 vvcurveto
          137 -70 96 -133 -115 -111 -98 -160 vhcurveto
          111 44 rmoveto
          83 10 50 42 58 hhcurveto
          67 33 -47 -78 hvcurveto
          endchar
        </CharString>
        <CharString name="equal">
          198 callgsubr
          34 400 rmoveto
          201 callsubr
          -308 vmoveto
          201 callsubr
          endchar
        </CharString>
        <CharString name="estimated">
          233 -11 20 307 19 306 20 hstem
          46 130 450 129 vstem
          184 108 rmoveto
          -4 6 -4 7 8 vvcurveto
          183 vlineto
          3 2 1 2 vhcurveto
          575 hlineto
          3 0 3 3 vvcurveto
          186 -158 150 -196 -196 -159 -150 -186 -186 159 -150 196 114 102 52 79 65 vhcurveto
          -52 hlineto
          -68 -55 -82 -43 -91 hhcurveto
          -86 -78 38 61 -54 hvcurveto
          -4 227 rmoveto
          -2 -2 2 3 hvcurveto
          180 vlineto
          9 4 8 5 6 vhcurveto
          60 55 76 38 86 hhcurveto
          83 76 -37 -58 56 hvcurveto
          5 -6 4 -7 -9 vvcurveto
          -184 vlineto
          -3 -2 -2 -3 vhcurveto
          endchar
        </CharString>
        <CharString name="eth">
          -15 -12 94 282 87 hstem
          48 106 235 109 vstem
          274 82 rmoveto
          -65 -55 54 89 86 46 53 73 40 38 -13 -45 36 hvcurveto
          1 -16 1 -17 -17 vvcurveto
          -110 -42 -64 -73 vhcurveto
          213 584 rmoveto
          -31 54 -143 -73 -43 35 -47 28 -48 25 rlinecurve
          -51 -71 37 -20 34 -20 30 -22 rlinecurve
          -122 -62 31 -53 142 72 45 -44 33 -51 18 -67 rlinecurve
          38 -31 -44 16 -45 hhcurveto
          -110 -94 -86 -140 -146 104 -91 119 139 88 113 161 153 -56 108 -79 80 hvcurveto
          endchar
        </CharString>
        <CharString name="exclam">
          -252 -12 134 callsubr
          119 215 rmoveto
          77 hlineto
          16 341 rlineto
          hintmask 10100000
          4 114 rlineto
          -116 hlineto
          3 -114 rlineto
          hintmask 11000000
          -20 -490 rmoveto
          -74 callgsubr
          endchar
        </CharString>
        <CharString name="exclamdown">
          -252 347 134 callsubr
          196 276 rmoveto
          -77 hlineto
          -16 -341 rlineto
          hintmask 10100000
          -3 -114 rlineto
          116 hlineto
          -4 114 rlineto
          hintmask 11000000
          20 491 rmoveto
          44 -32 33 -42 -42 -33 -33 -44 -46 33 -33 42 42 32 33 46 vhcurveto
          endchar
        </CharString>
        <CharString name="f">
          -250 21 -21 202 callgsubr
          hstem
          93 115 vstem
          346 701 rmoveto
          48 callgsubr
          -51 vlineto
          92 callgsubr
          96 91 -96 53 vlineto
          57 22 26 40 17 19 -4 -8 18 vhcurveto
          endchar
        </CharString>
        <CharString name="f.sups">
          -350 525 65 87 65 hstem
          62 83 vstem
          237 731 rmoveto
          7 -17 -20 4 -25 hhcurveto
          -81 -32 -57 -69 hvcurveto
          -26 vlineto
          -45 -4 rlineto
          -61 45 -261 83 261 64 65 -64 30 vlineto
          37 15 20 26 14 12 -3 -3 9 vhcurveto
          endchar
        </CharString>
        <CharString name="f_f">
          49 21 -21 400 91 126 91 -81 91 -10 -20 hstemhm
          93 115 185 115 hintmask 11010110
          646 701 rmoveto
          9 -22 -32 8 -36 hhcurveto
          -116 -47 -74 -102 hvcurveto
          -51 -185 vlineto
          hintmask 11100110
          43 vlineto
          55 26 28 41 26 17 -4 -9 19 vhcurveto
          hintmask 11001110
          22 86 rlineto
          hintmask 11100110
          11 -24 -35 7 -37 hhcurveto
          -119 -51 -73 -101 hvcurveto
          -43 vlineto
          92 callgsubr
          185 -400 115 400 96 91 -96 vlineto
          hintmask 11010110
          53 vlineto
          57 22 26 41 17 18 -4 -8 18 vhcurveto
          endchar
        </CharString>
        <CharString name="f_t">
          75 -12 92 -59 -21 202 callgsubr
          hstemhm
          93 115 163 115 hintmask 10111100
          607 91 rmoveto
          -6 -14 -20 -5 -17 hhcurveto
          -47 -23 28 58 hvcurveto
          234 126 91 -126 134 -95 vlineto
          -14 -134 rlineto
          -169 53 hlineto
          57 22 26 40 17 19 -4 -8 18 vhcurveto
          22 86 rlineto
          48 callgsubr
          -51 vlineto
          -66 -5 rlineto
          -86 66 vlineto
          hintmask 01111100
          -400 115 400 163 -234 vlineto
          hintmask 10111100
          -106 42 -72 113 40 34 9 9 27 vhcurveto
          endchar
        </CharString>
        <CharString name="fi">
          29 21 -21 400 91 86 131 -81 91 hstemhm
          93 115 187 142 -129 115 hintmask 11011010
          -31 callsubr
          hintmask 11101100
          373 35 29 callgsubr
          hintmask 11011010
          91 callsubr
          endchar
        </CharString>
        <CharString name="figuredash">
          -54 214 76 hstem
          42 429 vstem
          42 214 rmoveto
          429 76 -429 hlineto
          endchar
        </CharString>
        <CharString name="five">
          -31 callgsubr
        </CharString>
        <CharString name="five.dnom">
          -195 -12 125 callsubr
          66 -51 callsubr
        </CharString>
        <CharString name="five.numr">
          -195 252 125 callsubr
          330 -51 callsubr
        </CharString>
        <CharString name="five.onum">
          -32 callsubr
        </CharString>
        <CharString name="five.pnum">
          -31 callgsubr
        </CharString>
        <CharString name="five.sc">
          -88 -11 89 180 76 94 95 hstem
          81 98.5 136.5 114 vstem
          28 62 rmoveto
          -40 43 61 -33 90 hhcurveto
          111 97 66 116 112 -83 51 -99 -26 -24 -6 -10 -23 hvcurveto
          9 110 rlineto
          219 95 -314 hlineto
          -16 -264 53 -33 rlineto
          21 34 20 11 38 hhcurveto
          57 41 -35 -55 -56 -42 -34 -60 -58 -43 28 28 -34 hvcurveto
          endchar
        </CharString>
        <CharString name="five.subs">
          -195 -243 125 callsubr
          -166 rmoveto
          -47 -59 callgsubr
          -28 rlineto
          17 20 19 11 27 hhcurveto
          40 30 -27 -45 -41 -29 -31 -39 -39 -28 18 34 -25 hvcurveto
          endchar
        </CharString>
        <CharString name="five.sups">
          -195 428 125 callsubr
          506 -51 callsubr
        </CharString>
        <CharString name="five.tnum">
          -32 callsubr
        </CharString>
        <CharString name="fiveeighths">
          268 -12 60 204 67 21 62 61 53 64 74 hstemhm
          245 85 175 79 -65 78 104 78 -66 79 hintmask 1101110101000000
          31 330 -49 callgsubr
          189 -384 -50 callsubr
          hintmask 1101111001000000
          381 -1 callgsubr
          hintmask 1111110110000000
          0 callgsubr
          hintmask 1101111001000000
          -66 callsubr
          hintmask 1111110110000000
          30 18 29 -55 callgsubr
          hintmask 1101111001000000
          -36 -21 -36 -37 -47 vvcurveto
          endchar
        </CharString>
        <CharString name="fl">
          21 -12 94 -61 -21 202 callgsubr
          -12 -20 hstemhm
          93 115 182 115 hintmask 01110110
          -31 callsubr
          hintmask 10101110
          455 -458 rmoveto
          -2 -9 -4 0 -5 hhcurveto
          -12 -13 10 28 hvcurveto
          586 -115 -580 vlineto
          -85 30 -53 82 27 19 205 callgsubr
          endchar
        </CharString>
        <CharString name="fl.a">
          29 202 callgsubr
          hstem
          93 115 200 115 vstem
          -31 callsubr
          315 164 rmoveto
          -706 115 706 vlineto
          endchar
        </CharString>
        <CharString name="four">
          -54 21 -21 164 89 276 107 hstem
          299 108 vstem
          132 253 rmoveto
          116 96 callgsubr
          -137 hlineto
          -252 -394 rlineto
          -78 281 120 callgsubr
        </CharString>
        <CharString name="four.dnom">
          -195 95 140 callsubr
          154 -7 callsubr
        </CharString>
        <CharString name="four.numr">
          -195 359 140 callsubr
          418 -7 callsubr
        </CharString>
        <CharString name="four.onum">
          -35 88 90 289 109 hstem
          307 108 vstem
          140 21 callsubr
        </CharString>
        <CharString name="four.pnum">
          -27 21 -21 164 89 276 107 hstem
          316 108 vstem
          150 253 rmoveto
          115 96 callgsubr
          -136 hlineto
          -252 -394 rlineto
          -78 280 120 callgsubr
        </CharString>
        <CharString name="four.sc">
          -65 21 -21 128 85 209 101 hstem
          289 106 vstem
          148 213 rmoveto
          95 133 19 31 9 14 18 31 rlinecurve
          3 hlineto
          -1 -32 -2 -48 -33 vvcurveto
          -96 vlineto
          177 hmoveto
          -71 310 -136 hlineto
          -222 -317 rlineto
          -78 252 -128 106 128 71 vlineto
          endchar
        </CharString>
        <CharString name="four.subs">
          -195 -136 58 169 68 hstem
          217 77 vstem
          122 -78 rmoveto
          51 90 45 79 -15 callsubr
          -5 -113 rlineto
          -56 vlineto
          135 hmoveto
          -58 237 -104 hlineto
          -152 -251 rlineto
          -44 179 -95 77 95 58 vlineto
          endchar
        </CharString>
        <CharString name="four.sups">
          -195 535 140 callsubr
          594 -7 callsubr
        </CharString>
        <CharString name="four.tnum">
          -54 88 90 289 109 hstem
          299 108 vstem
          132 21 callsubr
        </CharString>
        <CharString name="fraction">
          -476 -12 678 hstem
          -169 427 vstem
          -98 -12 -50 callsubr
          endchar
        </CharString>
        <CharString name="g">
          -38 callsubr
          55 callsubr
          176 101 -41 111 hintmask 1011101001000000
          23 callsubr
          hintmask 1101100100100000
          -45 callgsubr
          hintmask 1011101001000000
          -28 callgsubr
          hintmask 1011100010100000
          -81 callsubr
          hintmask 1011100101000000
          -38 callgsubr
          hintmask 1011010101000000
          -57 callsubr
          hintmask 1011100011000000
          -28 callsubr
          hintmask 1011101001000000
          106 callgsubr
          hintmask 1011010101000000
          -69 callgsubr
          endchar
        </CharString>
        <CharString name="g.a">
          -7 callgsubr
          hstemhm
          47 117 215 115 hintmask 11101100
          -71 callgsubr
          hintmask 11011100
          501 -94 vlineto
          hintmask 11101100
          -102 callsubr
          endchar
        </CharString>
        <CharString name="g.supa">
          -183 122 66 87 68 186 68 hstem
          32 85 136 82 vstem
          82 214 rmoveto
          -29 -55 rlineto
          -24 37 47 -13 37 hhcurveto
          102 59 51 89 hvcurveto
          327 -66 vlineto
          -7 -31 rlineto
          -2 hlineto
          27 -26 -28 12 -34 hhcurveto
          -71 -69 -63 -100 -95 53 -64 84 33 27 15 22 26 hvcurveto
          -2 -38 rlineto
          -10 vlineto
          -42 -26 -34 -52 -29 -34 8 18 -30 vhcurveto
          107 129 rmoveto
          -47 -25 34 58 59 32 35 39 20 24 -7 -19 21 hvcurveto
          -126 vlineto
          -24 -22 -19 -10 -23 hhcurveto
          endchar
        </CharString>
        <CharString name="g.sups">
          -215 122 53 79 64 48 52 109 62 -49 58 hstemhm
          26 69 -60 78 -70 67 112 73 -34 80 hintmask 1111010001000000
          95 219 rmoveto
          14 9 13 15 12 vhcurveto
          -4 14 17 0 13 hhcurveto
          43 hlineto
          36 19 -8 -22 -26 -35 -23 -50 -50 -31 16 28 hvcurveto
          -69 -13 rmoveto
          -58 58 -26 78 111 68 50 65 58 -41 23 -80 vhcurveto
          hintmask 1111000110000000
          -58 hlineto
          -39 -13 9 18 13 6 8 9 8 hvcurveto
          -7 16 14 -1 13 hhcurveto
          70 57 38 73 19 -7 20 -9 11 hvcurveto
          57 62 -116 hlineto
          6 -15 -18 3 -19 hhcurveto
          hintmask 1111001010000000
          -71 -62 -42 -76 -38 21 -31 23 -16 hvcurveto
          -4 vlineto
          hintmask 1111000110000000
          -20 -14 -16 -22 -24 vvcurveto
          -26 12 -17 17 -11 vhcurveto
          -4 vlineto
          hintmask 1111010001000000
          -30 -17 -16 -22 -28 vvcurveto
          hintmask 1110101010000000
          142 212 rmoveto
          -32 -23 23 39 39 23 21 32 30 24 -21 -39 -39 -24 -23 -30 hvcurveto
          endchar
        </CharString>
        <CharString name="gbreve">
          -38 callsubr
          72 65 -65 133 55 callsubr
          -46 67 132 66 -43 101 -41 111 hintmask 1011100110000100
          23 callsubr
          hintmask 1101100101000010
          -45 callgsubr
          hintmask 1011100110000100
          -28 callgsubr
          hintmask 1011100100100010
          -81 callsubr
          hintmask 1011100101000100
          -38 callgsubr
          hintmask 1011010101000100
          -57 callsubr
          hintmask 1011100100100100
          -28 callsubr
          hintmask 1011100110000100
          106 callgsubr
          hintmask 1011010101000100
          -69 callgsubr
          hintmask 1011100100011000
          -4 347 rmoveto
          89 40 67 66 3 hvcurveto
          -66 hlineto
          hintmask 1011101001001000
          95 callgsubr
          hintmask 1011100100010100
          -41 -21 32 36 -4 hvcurveto
          -67 hlineto
          hintmask 1011100100011000
          -66 3 40 -67 90 hhcurveto
          endchar
        </CharString>
        <CharString name="gbreve.a">
          -7 callgsubr
          104 65 -65 133 hstemhm
          47 117 -2 66 132 67 -48 115 hintmask 1110011001000000
          -71 callgsubr
          hintmask 1101011001000000
          501 -94 vlineto
          hintmask 1110011001000000
          -102 callsubr
          hintmask 1110010110000000
          17 472 171 callsubr
          hintmask 1110101010000000
          -36 -4 -21 -32 -41 hhcurveto
          hintmask 1110010101000000
          -41 -20 32 36 -5 hvcurveto
          -66 hlineto
          hintmask 1110010110000000
          199 callgsubr
        </CharString>
        <CharString name="gcaron">
          -83 callgsubr
          -51 345 13 callsubr
        </CharString>
        <CharString name="gcaron.a">
          -7 callgsubr
          102 146 hstemhm
          47 117 215 115 hintmask 11101110
          -71 callgsubr
          hintmask 11011110
          501 -94 vlineto
          hintmask 11101110
          -102 callsubr
          -29 470 rmoveto
          93 hlineto
          95 -50 callgsubr
          -79 hlineto
          endchar
        </CharString>
        <CharString name="gcircumflex">
          -83 callgsubr
          -146 345 -15 callgsubr
        </CharString>
        <CharString name="gcircumflex.a">
          -7 callgsubr
          102 146 hstemhm
          47 117 215 115 hintmask 11101110
          -71 callgsubr
          hintmask 11011110
          501 -94 vlineto
          hintmask 11101110
          -102 callsubr
          -124 470 -67 callgsubr
          endchar
        </CharString>
        <CharString name="gdotaccent">
          -38 callsubr
          74 131 55 callsubr
          19 136 21 -79 callgsubr
          hintmask 1011101010110000
          -4 349 -100 callgsubr
        </CharString>
        <CharString name="gdotaccent.a">
          -7 callgsubr
          106 131 hstemhm
          47 117 62 136 17 115 hintmask 11101101
          -71 callgsubr
          hintmask 11011101
          501 -94 vlineto
          hintmask 11101101
          -102 callsubr
          hintmask 11101111
          17 474 -93 callsubr
        </CharString>
        <CharString name="germandbls">
          37 -12 87 -54 -21 625 91 hstemhm
          73 114 97 106 -27 111 -4 107 hintmask 01110100
          73 hmoveto
          114 484 hlineto
          91 37 50 66 48 25 -33 -45 vhcurveto
          -79 -79 -28 -83 vvcurveto
          hintmask 10111010
          -135 186 12 -95 vvcurveto
          -35 -25 -29 -44 -35 -31 12 27 -35 vhcurveto
          -42 -79 rlineto
          -29 45 45 -18 56 hhcurveto
          110 63 69 87 hvcurveto
          158 -187 -12 81 60 84 31 98 vvcurveto
          hintmask 10110100
          82 -63 74 -121 -143 -74 -88 -127 vhcurveto
          endchar
        </CharString>
        <CharString name="germandbls.sc">
          401 178 callgsubr
          hstem
          68 115 154 116 94 115 154 116 vstem
          38 63 -103 callsubr
          421 -78 -103 callsubr
          endchar
        </CharString>
        <CharString name="grave">
          -18 132 callgsubr
          144 204 vstem
          262 573 5 callgsubr
        </CharString>
        <CharString name="greater">
          -54 117 430 hstem
          362 117 vstem
          479 374 rmoveto
          -445 173 rlineto
          -97 vlineto
          193 -68 135 -48 rlineto
          -4 vlineto
          -135 -48 -193 -68 rlineto
          -97 vlineto
          445 173 rlineto
          endchar
        </CharString>
        <CharString name="greaterequal">
          -54 0 83 hstemhm
          34 445 -117 117 hintmask 11000000
          34 hmoveto
          445 83 -445 hlineto
          hintmask 10100000
          445 316 rmoveto
          -445 148 rlineto
          -97 vlineto
          191 -59 137 -39 rlineto
          -4 vlineto
          -137 -39 -191 -59 rlineto
          -97 vlineto
          445 148 rlineto
          endchar
        </CharString>
        <CharString name="guillemotleft">
          -112 61 382 hstem
          47 66 107 67 101 callsubr
          309 -149 rmoveto
          45 36 -114 155 114 154 -45 37 -136 -149 rlineto
          -84 vlineto
          endchar
        </CharString>
        <CharString name="guillemotright">
          -112 61 382 hstem
          168 67 107 66 101 callgsubr
          60 -155 rmoveto
          45 -36 135 149 rlineto
          84 vlineto
          -135 149 -45 -37 114 -154 rlineto
          endchar
        </CharString>
        <CharString name="guilsinglleft">
          -285 61 382 hstem
          47 66 101 callsubr
          endchar
        </CharString>
        <CharString name="guilsinglright">
          -285 61 382 hstem
          168 67 101 callgsubr
          endchar
        </CharString>
        <CharString name="h">
          -9 21 224 callgsubr
          203 -20 hstem
          73 115 189 115 vstem
          -95 callsubr
          -49 -35 -39 -41 vhcurveto
          4 95 rlineto
          182 -115 vlineto
          endchar
        </CharString>
        <CharString name="h.sups">
          -192 117 callsubr
          23 hhcurveto
          42 169 callsubr
          -37 -25 -26 -25 vhcurveto
          5 63 rlineto
          120 -83 vlineto
          endchar
        </CharString>
        <CharString name="hbar">
          -9 21 -21 384 99 81 59 -59 142 100 callsubr
          189 115 hintmask 11011100
          188 504 rmoveto
          60 176 vlineto
          hintmask 11101100
          59 -176 vlineto
          hintmask 11011100
          83 -115 vlineto
          hintmask 11101100
          -83 vlineto
          -71 -5 rlineto
          hintmask 11011100
          -54 71 -564 115 323 vlineto
          43 callgsubr
          54 23 -30 -81 hvcurveto
          -273 115 288 vlineto
          124 -46 71 -105 -67 -49 -35 -39 -41 vhcurveto
          endchar
        </CharString>
        <CharString name="hcircumflex">
          -9 21 224 callgsubr
          203 -20 63 116 hstem
          73 115 189 115 vstem
          -95 callsubr
          -49 -35 -39 -41 vhcurveto
          4 95 rlineto
          182 -115 vlineto
          -5 43 116 callsubr
          endchar
        </CharString>
        <CharString name="hungarumlaut">
          -18 572 147 hstem
          162 324 vstem
          162 572 110 callsubr
        </CharString>
        <CharString name="hyphen">
          118 callgsubr
        </CharString>
        <CharString name="hyphen.sc">
          -277 228 84 hstem
          42 206 vstem
          42 228 rmoveto
          206 84 -206 hlineto
          endchar
        </CharString>
        <CharString name="hyphen.sups">
          -323 607 59 hstem
          42 161 vstem
          42 607 rmoveto
          161 59 -161 hlineto
          endchar
        </CharString>
        <CharString name="i">
          10 callsubr
        </CharString>
        <CharString name="i.sups">
          -390 643 92 hstemhm
          38 102 -93 83 hintmask 11000000
          89 643 149 callgsubr
          hintmask 10100000
          -42 -379 rmoveto
          83 326 -83 hlineto
          endchar
        </CharString>
        <CharString name="i.trk">
          10 callsubr
        </CharString>
        <CharString name="iacute">
          0 callsubr
          188 228 4 callgsubr
        </CharString>
        <CharString name="icircumflex">
          0 callsubr
          -84 82 -15 callgsubr
        </CharString>
        <CharString name="idieresis">
          68 callgsubr
          108 119 hstemhm
          -22 120 -25 115 -24 119 hintmask 11101000
          127 callgsubr
          hintmask 11110100
          -35 -19 callsubr
        </CharString>
        <CharString name="igrave">
          0 callsubr
          46 119 callsubr
        </CharString>
        <CharString name="imacron">
          68 callgsubr
          125 76 hstem
          73 115 vstem
          127 callgsubr
          -73 105 15 callsubr
          endchar
        </CharString>
        <CharString name="infinity">
          231 130 107 -85 86 164 107 -69 85 hstemhm
          38 87 548 87 hintmask 01011100
          199 152 rmoveto
          79 54 54 44 36 hvcurveto
          4 hlineto
          hintmask 10011100
          -79 61 57 -41 85 hhcurveto
          104 81 79 129 109 -78 78 -103 -82 -62 -49 -65 -49 hvcurveto
          -4 hlineto
          hintmask 01101100
          48 -36 -52 50 -79 hhcurveto
          -103 -74 -70 -119 hvcurveto
          hintmask 01011100
          -91 72 -77 89 vhcurveto
          hintmask 10011100
          227 193 rmoveto
          62 44 47 33 51 hhcurveto
          65 40 -42 -63 -53 -37 -45 -61 -59 -42 44 64 -48 hvcurveto
          hintmask 01101100
          -216 -107 rmoveto
          -51 -34 38 48 47 31 31 50 46 40 -35 -51 36 hvcurveto
          -45 -31 -39 -33 -48 hhcurveto
          endchar
        </CharString>
        <CharString name="integral">
          -205 -158 88 772 88 hstemhm
          119 105 -65 104 hintmask 11010000
          59 -66 rmoveto
          -12 -85 rlineto
          -3 10 20 -4 22 hhcurveto
          136 28 102 136 hvcurveto
          hintmask 11100000
          157 -39 169 150 vvcurveto
          98 11 48 53 14 12 -1 -3 9 vhcurveto
          12 85 rlineto
          4 -9 -21 3 -22 hhcurveto
          -136 -28 -103 -135 hvcurveto
          hintmask 11010000
          -156 40 -170 -150 vvcurveto
          -99 -11 -47 -54 -14 -12 1 3 -9 vhcurveto
          endchar
        </CharString>
        <CharString name="iogonek">
          -305 -208 71 158 -21 491 223 callgsubr
          40 80 -61 143 -129 115 hintmask 11110010
          73 hmoveto
          hintmask 11111000
          31 hlineto
          -26 -24 -38 -40 -56 vvcurveto
          104 callsubr
          hintmask 11110010
          102 callsubr
          hintmask 11110100
          57 124 callgsubr
        </CharString>
        <CharString name="iogonek.d">
          -305 -208 71 158 64 callgsubr
          hstemhm
          40 80 -47 115 hintmask 11101000
          73 hmoveto
          hintmask 11110000
          31 hlineto
          -26 -24 -38 -40 -56 vvcurveto
          104 callsubr
          hintmask 11101000
          102 callsubr
          endchar
        </CharString>
        <CharString name="itilde">
          68 callgsubr
          106 194 callgsubr
          -22 61 34 115 34 62 hintmask 11011100
          127 callgsubr
          -95 86 rmoveto
          61 hlineto
          33 7 10 15 19 hhcurveto
          hintmask 11101110
          31 33 -48 52 hhcurveto
          hintmask 11011110
          51 34 45 76 8 hvcurveto
          -62 hlineto
          hintmask 11101110
          231 callsubr
          -18 hhcurveto
          hintmask 11011100
          -31 -34 48 -51 hhcurveto
          -51 -34 180 callgsubr
          endchar
        </CharString>
        <CharString name="j">
          -304 -206 91 606 223 callgsubr
          61 143 -130 116 hintmask 11101000
          1 callsubr
          hintmask 11110000
          58 124 callgsubr
        </CharString>
        <CharString name="j.sups">
          -387 124 66 453 92 hstemhm
          40 102 -93 83 hintmask 11010000
          25 124 rmoveto
          79 28 53 73 hvcurveto
          340 -83 -344 vlineto
          -38 -8 -18 -28 -12 -8 2 3 -7 vhcurveto
          -16 -63 rlineto
          -5 15 14 -3 26 hhcurveto
          hintmask 11100000
          66 519 149 callgsubr
          endchar
        </CharString>
        <CharString name="jcircumflex">
          -304 -206 91 606 -20 102 146 hstem
          74 116 vstem
          1 callsubr
          -84 82 -4 callgsubr
          endchar
        </CharString>
        <CharString name="k">
          -45 131 callsubr
          235 -20 hstem
          73 113 vstem
          -17 callgsubr
          endchar
        </CharString>
        <CharString name="k.sups">
          -213 264 466 hstem
          47 83 193 callsubr
          83 81 hlineto
          46 55 83 -136 rlineto
          91 hlineto
          -127 190 116 136 rlineto
          -91 hlineto
          -114 -144 rlineto
          -4 284 -83 hlineto
          endchar
        </CharString>
        <CharString name="kgreenlandic">
          -45 21 -21 491 159 callsubr
          121 hlineto
          75 89 126 -210 rlineto
          125 hlineto
          -183 291 166 200 rlineto
          -126 hlineto
          -179 -228 rlineto
          -4 228 -115 hlineto
          endchar
        </CharString>
        <CharString name="l">
          -296 -12 160 callgsubr
          hintmask 01110000
          73 126 rmoveto
          hintmask 10110000
          -81 callgsubr
          endchar
        </CharString>
        <CharString name="l.a">
          -305 21 -21 706 159 callsubr
          204 callgsubr
          hlineto
          endchar
        </CharString>
</ttFont>
